<?xml version="1.0" encoding="UTF-8"?>
<svg id="Layer_2" data-name="Layer 2" xmlns="http://www.w3.org/2000/svg" viewBox="0 0 1159.2 19.3">
  <defs>
    <style>
      .cls-1 {
        fill: #000;
        stroke-width: 0px;
      }
    </style>
  </defs>
  <g id="Layer_1-2" data-name="Layer 1">
    <g id="weeeee">
      <path class="cls-1" d="M.46,12.93c.17-.71.4-1.45.67-2.23s.57-1.56.87-2.37.61-1.62.9-2.46.55-1.66.76-2.49c.05-.2.1-.39.14-.56s.08-.36.12-.55c.09-.2.22-.36.38-.47s.33-.16.52-.16c.17,0,.33.03.49.08s.29.14.4.26.2.28.27.46.1.41.1.67c0,.28-.04.6-.13.96-.3.78-.61,1.55-.93,2.3s-.62,1.48-.91,2.2-.56,1.43-.81,2.13-.46,1.4-.64,2.09c-.02.05-.05.17-.09.36s-.1.4-.15.66-.1.53-.13.83-.06.58-.06.85c0,.19.01.37.04.53s.06.31.12.44.13.22.22.29.21.11.35.11c.3,0,.66-.15,1.09-.46s.89-.73,1.39-1.26,1.01-1.15,1.54-1.86,1.04-1.47,1.54-2.29.96-1.65,1.39-2.51.79-1.71,1.09-2.54c.07-.15.16-.24.26-.29s.23-.06.4-.06c.3,0,.56.09.77.28s.31.42.31.71c0,.07,0,.14-.02.2s-.04.14-.07.22l-.16.48c-.12.37-.24.71-.36,1.01s-.21.6-.28.87c-.1.39-.18.75-.25,1.07s-.11.63-.15.91-.06.56-.07.84-.02.55-.02.83c0,.11,0,.27.03.48s.05.44.09.7.09.51.16.77.14.5.23.72.2.4.32.53.26.21.42.21c.24,0,.5-.1.77-.3s.54-.47.81-.82.55-.76.83-1.22.55-.97.81-1.51.51-1.1.75-1.68.46-1.15.66-1.72.38-1.11.53-1.64.28-1.01.37-1.45c.09-.41.16-.82.22-1.21l.19-1.17c.06-.39.13-.78.21-1.18s.17-.8.28-1.21c.04-.15.1-.3.18-.46s.17-.3.29-.43.24-.23.37-.32.27-.12.41-.12c.35,0,.59.1.71.29s.19.51.19.96c0,.33-.03.71-.09,1.15s-.13.9-.22,1.38-.19.97-.3,1.46-.22.96-.33,1.39c-.22.89-.51,1.81-.87,2.77s-.76,1.89-1.2,2.8-.91,1.77-1.41,2.57-.99,1.5-1.49,2.07c-.17.2-.38.41-.61.62s-.49.4-.76.57-.54.31-.82.43-.54.17-.8.17c-.54,0-.99-.16-1.35-.47s-.66-.74-.89-1.27-.41-1.13-.53-1.8-.21-1.37-.26-2.09c-.44.65-.84,1.23-1.2,1.73s-.73.98-1.11,1.41c-.28.32-.6.67-.95,1.04s-.72.71-1.12,1.03-.8.58-1.21.79-.82.31-1.22.31c-.46,0-.85-.08-1.15-.24s-.56-.38-.74-.66-.32-.61-.4-1-.12-.8-.12-1.24c0-.52.04-1.05.13-1.59s.2-1.09.33-1.64Z"/>
      <path class="cls-1" d="M21.6,13.65c0-.34.09-.62.27-.86s.42-.39.71-.47c.09-.17.22-.4.4-.7s.4-.61.67-.96.57-.69.91-1.04.71-.66,1.12-.95.85-.52,1.32-.7.97-.27,1.51-.27c.45,0,.85.05,1.18.16s.61.26.83.46.38.43.49.7.16.56.16.87c0,.27-.04.52-.11.76-.11.44-.31.82-.61,1.15s-.65.62-1.05.86-.84.45-1.31.62-.95.3-1.42.41-.93.19-1.37.25-.82.1-1.14.13c-.07.14-.13.32-.18.53s-.08.42-.08.63c0,.45.18.8.54,1.05s.86.38,1.49.38c.37,0,.72-.04,1.05-.12s.65-.19.96-.32.58-.27.85-.42.51-.3.73-.45c.28-.19.55-.35.8-.47s.48-.19.67-.19.32.05.38.15.08.2.08.31c0,.06,0,.12,0,.18s0,.11-.02.15c-.04.2-.12.41-.23.61s-.27.38-.45.53c-.81.64-1.65,1.1-2.5,1.37s-1.77.41-2.74.41c-.19,0-.41-.01-.66-.04s-.52-.07-.79-.14-.54-.17-.81-.3-.5-.31-.71-.53-.38-.49-.5-.81-.19-.71-.19-1.16c0-.37.05-.78.15-1.23-.1-.02-.2-.07-.29-.16s-.13-.22-.13-.39ZM28.93,10.41s.02-.07.02-.11v-.11c0-.21-.08-.37-.23-.47s-.34-.16-.56-.16c-.34,0-.68.09-1.01.27s-.64.4-.94.67-.55.56-.78.87-.4.59-.53.84c.56-.05,1.08-.12,1.55-.23s.88-.24,1.22-.4.63-.34.84-.54.35-.41.42-.64Z"/>
      <path class="cls-1" d="M33.46,13.65c0-.34.09-.62.27-.86s.42-.39.71-.47c.09-.17.22-.4.4-.7s.4-.61.67-.96.57-.69.91-1.04.71-.66,1.12-.95.85-.52,1.32-.7.97-.27,1.51-.27c.45,0,.85.05,1.18.16s.61.26.83.46.38.43.49.7.16.56.16.87c0,.27-.04.52-.11.76-.11.44-.31.82-.61,1.15s-.65.62-1.05.86-.84.45-1.31.62-.95.3-1.42.41-.93.19-1.37.25-.82.1-1.14.13c-.07.14-.13.32-.18.53s-.08.42-.08.63c0,.45.18.8.54,1.05s.86.38,1.49.38c.37,0,.72-.04,1.05-.12s.65-.19.96-.32.58-.27.85-.42.51-.3.73-.45c.28-.19.55-.35.8-.47s.48-.19.67-.19.32.05.38.15.08.2.08.31c0,.06,0,.12,0,.18s0,.11-.02.15c-.04.2-.12.41-.23.61s-.27.38-.45.53c-.81.64-1.65,1.1-2.5,1.37s-1.77.41-2.74.41c-.19,0-.41-.01-.66-.04s-.52-.07-.79-.14-.54-.17-.81-.3-.5-.31-.71-.53-.38-.49-.5-.81-.19-.71-.19-1.16c0-.37.05-.78.15-1.23-.1-.02-.2-.07-.29-.16s-.13-.22-.13-.39ZM40.79,10.41s.02-.07.02-.11v-.11c0-.21-.08-.37-.23-.47s-.34-.16-.56-.16c-.34,0-.68.09-1.01.27s-.64.4-.94.67-.55.56-.78.87-.4.59-.53.84c.56-.05,1.08-.12,1.55-.23s.88-.24,1.22-.4.63-.34.84-.54.35-.41.42-.64Z"/>
      <path class="cls-1" d="M45.32,13.65c0-.34.09-.62.27-.86s.42-.39.71-.47c.09-.17.22-.4.4-.7s.4-.61.67-.96.57-.69.91-1.04.71-.66,1.12-.95.85-.52,1.32-.7.97-.27,1.51-.27c.45,0,.85.05,1.18.16s.61.26.83.46.38.43.49.7.16.56.16.87c0,.27-.04.52-.11.76-.11.44-.31.82-.61,1.15s-.65.62-1.05.86-.84.45-1.31.62-.95.3-1.42.41-.93.19-1.37.25-.82.1-1.14.13c-.07.14-.13.32-.18.53s-.08.42-.08.63c0,.45.18.8.54,1.05s.86.38,1.49.38c.37,0,.72-.04,1.05-.12s.65-.19.96-.32.58-.27.85-.42.51-.3.73-.45c.28-.19.55-.35.8-.47s.48-.19.67-.19.32.05.38.15.08.2.08.31c0,.06,0,.12,0,.18s0,.11-.02.15c-.04.2-.12.41-.23.61s-.27.38-.45.53c-.81.64-1.65,1.1-2.5,1.37s-1.77.41-2.74.41c-.19,0-.41-.01-.66-.04s-.52-.07-.79-.14-.54-.17-.81-.3-.5-.31-.71-.53-.38-.49-.5-.81-.19-.71-.19-1.16c0-.37.05-.78.15-1.23-.1-.02-.2-.07-.29-.16s-.13-.22-.13-.39ZM52.65,10.41s.02-.07.02-.11v-.11c0-.21-.08-.37-.23-.47s-.34-.16-.56-.16c-.34,0-.68.09-1.01.27s-.64.4-.94.67-.55.56-.78.87-.4.59-.53.84c.56-.05,1.08-.12,1.55-.23s.88-.24,1.22-.4.63-.34.84-.54.35-.41.42-.64Z"/>
      <path class="cls-1" d="M57.18,13.65c0-.34.09-.62.27-.86s.42-.39.71-.47c.09-.17.22-.4.4-.7s.4-.61.67-.96.57-.69.91-1.04.71-.66,1.12-.95.85-.52,1.32-.7.97-.27,1.51-.27c.45,0,.85.05,1.18.16s.61.26.83.46.38.43.49.7.16.56.16.87c0,.27-.04.52-.11.76-.11.44-.31.82-.61,1.15s-.65.62-1.05.86-.84.45-1.31.62-.95.3-1.42.41-.93.19-1.37.25-.82.1-1.14.13c-.07.14-.13.32-.18.53s-.08.42-.08.63c0,.45.18.8.54,1.05s.86.38,1.49.38c.37,0,.72-.04,1.05-.12s.65-.19.96-.32.58-.27.85-.42.51-.3.73-.45c.28-.19.55-.35.8-.47s.48-.19.67-.19.32.05.38.15.08.2.08.31c0,.06,0,.12,0,.18s0,.11-.02.15c-.04.2-.12.41-.23.61s-.27.38-.45.53c-.81.64-1.65,1.1-2.5,1.37s-1.77.41-2.74.41c-.19,0-.41-.01-.66-.04s-.52-.07-.79-.14-.54-.17-.81-.3-.5-.31-.71-.53-.38-.49-.5-.81-.19-.71-.19-1.16c0-.37.05-.78.15-1.23-.1-.02-.2-.07-.29-.16s-.13-.22-.13-.39ZM64.51,10.41s.02-.07.02-.11v-.11c0-.21-.08-.37-.23-.47s-.34-.16-.56-.16c-.34,0-.68.09-1.01.27s-.64.4-.94.67-.55.56-.78.87-.4.59-.53.84c.56-.05,1.08-.12,1.55-.23s.88-.24,1.22-.4.63-.34.84-.54.35-.41.42-.64Z"/>
      <path class="cls-1" d="M69.04,13.65c0-.34.09-.62.27-.86s.42-.39.71-.47c.09-.17.22-.4.4-.7s.4-.61.67-.96.57-.69.91-1.04.71-.66,1.12-.95.85-.52,1.32-.7.97-.27,1.51-.27c.45,0,.85.05,1.18.16s.61.26.83.46.38.43.49.7.16.56.16.87c0,.27-.04.52-.11.76-.11.44-.31.82-.61,1.15s-.65.62-1.05.86-.84.45-1.31.62-.95.3-1.42.41-.93.19-1.37.25-.82.1-1.14.13c-.07.14-.13.32-.18.53s-.08.42-.08.63c0,.45.18.8.54,1.05s.86.38,1.49.38c.37,0,.72-.04,1.05-.12s.65-.19.96-.32.58-.27.85-.42.51-.3.73-.45c.28-.19.55-.35.8-.47s.48-.19.67-.19.32.05.38.15.08.2.08.31c0,.06,0,.12,0,.18s0,.11-.02.15c-.04.2-.12.41-.23.61s-.27.38-.45.53c-.81.64-1.65,1.1-2.5,1.37s-1.77.41-2.74.41c-.19,0-.41-.01-.66-.04s-.52-.07-.79-.14-.54-.17-.81-.3-.5-.31-.71-.53-.38-.49-.5-.81-.19-.71-.19-1.16c0-.37.05-.78.15-1.23-.1-.02-.2-.07-.29-.16s-.13-.22-.13-.39ZM76.37,10.41s.02-.07.02-.11v-.11c0-.21-.08-.37-.23-.47s-.34-.16-.56-.16c-.34,0-.68.09-1.01.27s-.64.4-.94.67-.55.56-.78.87-.4.59-.53.84c.56-.05,1.08-.12,1.55-.23s.88-.24,1.22-.4.63-.34.84-.54.35-.41.42-.64Z"/>
      <path class="cls-1" d="M80.89,13.65c0-.34.09-.62.27-.86s.42-.39.71-.47c.09-.17.22-.4.4-.7s.4-.61.67-.96.57-.69.91-1.04.71-.66,1.12-.95.85-.52,1.32-.7.97-.27,1.51-.27c.45,0,.85.05,1.18.16s.61.26.83.46.38.43.49.7.16.56.16.87c0,.27-.04.52-.11.76-.11.44-.31.82-.61,1.15s-.65.62-1.05.86-.84.45-1.31.62-.95.3-1.42.41-.93.19-1.37.25-.82.1-1.14.13c-.07.14-.13.32-.18.53s-.08.42-.08.63c0,.45.18.8.54,1.05s.86.38,1.49.38c.37,0,.72-.04,1.05-.12s.65-.19.96-.32.58-.27.85-.42.51-.3.73-.45c.28-.19.55-.35.8-.47s.48-.19.67-.19.32.05.38.15.08.2.08.31c0,.06,0,.12,0,.18s0,.11-.02.15c-.04.2-.12.41-.23.61s-.27.38-.45.53c-.81.64-1.65,1.1-2.5,1.37s-1.77.41-2.74.41c-.19,0-.41-.01-.66-.04s-.52-.07-.79-.14-.54-.17-.81-.3-.5-.31-.71-.53-.38-.49-.5-.81-.19-.71-.19-1.16c0-.37.05-.78.15-1.23-.1-.02-.2-.07-.29-.16s-.13-.22-.13-.39ZM88.23,10.41s.02-.07.02-.11v-.11c0-.21-.08-.37-.23-.47s-.34-.16-.56-.16c-.34,0-.68.09-1.01.27s-.64.4-.94.67-.55.56-.78.87-.4.59-.53.84c.56-.05,1.08-.12,1.55-.23s.88-.24,1.22-.4.63-.34.84-.54.35-.41.42-.64Z"/>
      <path class="cls-1" d="M92.75,13.65c0-.34.09-.62.27-.86s.42-.39.71-.47c.09-.17.22-.4.4-.7s.4-.61.67-.96.57-.69.91-1.04.71-.66,1.12-.95.85-.52,1.32-.7.97-.27,1.51-.27c.45,0,.85.05,1.18.16s.61.26.83.46.38.43.49.7.16.56.16.87c0,.27-.04.52-.11.76-.11.44-.31.82-.61,1.15s-.65.62-1.05.86-.84.45-1.31.62-.95.3-1.42.41-.93.19-1.37.25-.82.1-1.14.13c-.07.14-.13.32-.18.53s-.08.42-.08.63c0,.45.18.8.54,1.05s.86.38,1.49.38c.37,0,.72-.04,1.05-.12s.65-.19.96-.32.58-.27.85-.42.51-.3.73-.45c.28-.19.55-.35.8-.47s.48-.19.67-.19.32.05.38.15.08.2.08.31c0,.06,0,.12,0,.18s0,.11-.02.15c-.04.2-.12.41-.23.61s-.27.38-.45.53c-.81.64-1.65,1.1-2.5,1.37s-1.77.41-2.74.41c-.19,0-.41-.01-.66-.04s-.52-.07-.79-.14-.54-.17-.81-.3-.5-.31-.71-.53-.38-.49-.5-.81-.19-.71-.19-1.16c0-.37.05-.78.15-1.23-.1-.02-.2-.07-.29-.16s-.13-.22-.13-.39ZM100.09,10.41s.02-.07.02-.11v-.11c0-.21-.08-.37-.23-.47s-.34-.16-.56-.16c-.34,0-.68.09-1.01.27s-.64.4-.94.67-.55.56-.78.87-.4.59-.53.84c.56-.05,1.08-.12,1.55-.23s.88-.24,1.22-.4.63-.34.84-.54.35-.41.42-.64Z"/>
      <path class="cls-1" d="M104.61,13.65c0-.34.09-.62.27-.86s.42-.39.71-.47c.09-.17.22-.4.4-.7s.4-.61.67-.96.57-.69.91-1.04.71-.66,1.12-.95.85-.52,1.32-.7.97-.27,1.51-.27c.45,0,.85.05,1.18.16s.61.26.83.46.38.43.49.7.16.56.16.87c0,.27-.04.52-.11.76-.11.44-.31.82-.61,1.15s-.65.62-1.05.86-.84.45-1.31.62-.95.3-1.42.41-.93.19-1.37.25-.82.1-1.14.13c-.07.14-.13.32-.18.53s-.08.42-.08.63c0,.45.18.8.54,1.05s.86.38,1.49.38c.37,0,.72-.04,1.05-.12s.65-.19.96-.32.58-.27.85-.42.51-.3.73-.45c.28-.19.55-.35.8-.47s.48-.19.67-.19.32.05.38.15.08.2.08.31c0,.06,0,.12,0,.18s0,.11-.02.15c-.04.2-.12.41-.23.61s-.27.38-.45.53c-.81.64-1.65,1.1-2.5,1.37s-1.77.41-2.74.41c-.19,0-.41-.01-.66-.04s-.52-.07-.79-.14-.54-.17-.81-.3-.5-.31-.71-.53-.38-.49-.5-.81-.19-.71-.19-1.16c0-.37.05-.78.15-1.23-.1-.02-.2-.07-.29-.16s-.13-.22-.13-.39ZM111.95,10.41s.02-.07.02-.11v-.11c0-.21-.08-.37-.23-.47s-.34-.16-.56-.16c-.34,0-.68.09-1.01.27s-.64.4-.94.67-.55.56-.78.87-.4.59-.53.84c.56-.05,1.08-.12,1.55-.23s.88-.24,1.22-.4.63-.34.84-.54.35-.41.42-.64Z"/>
      <path class="cls-1" d="M116.47,13.65c0-.34.09-.62.27-.86s.42-.39.71-.47c.09-.17.22-.4.4-.7s.4-.61.67-.96.57-.69.91-1.04.71-.66,1.12-.95.85-.52,1.32-.7.97-.27,1.51-.27c.45,0,.85.05,1.18.16s.61.26.83.46.38.43.49.7.16.56.16.87c0,.27-.04.52-.11.76-.11.44-.31.82-.61,1.15s-.65.62-1.05.86-.84.45-1.31.62-.95.3-1.42.41-.93.19-1.37.25-.82.1-1.14.13c-.07.14-.13.32-.18.53s-.08.42-.08.63c0,.45.18.8.54,1.05s.86.38,1.49.38c.37,0,.72-.04,1.05-.12s.65-.19.96-.32.58-.27.85-.42.51-.3.73-.45c.28-.19.55-.35.8-.47s.48-.19.67-.19.32.05.38.15.08.2.08.31c0,.06,0,.12,0,.18s0,.11-.02.15c-.04.2-.12.41-.23.61s-.27.38-.45.53c-.81.64-1.65,1.1-2.5,1.37s-1.77.41-2.74.41c-.19,0-.41-.01-.66-.04s-.52-.07-.79-.14-.54-.17-.81-.3-.5-.31-.71-.53-.38-.49-.5-.81-.19-.71-.19-1.16c0-.37.05-.78.15-1.23-.1-.02-.2-.07-.29-.16s-.13-.22-.13-.39ZM123.81,10.41s.02-.07.02-.11v-.11c0-.21-.08-.37-.23-.47s-.34-.16-.56-.16c-.34,0-.68.09-1.01.27s-.64.4-.94.67-.55.56-.78.87-.4.59-.53.84c.56-.05,1.08-.12,1.55-.23s.88-.24,1.22-.4.63-.34.84-.54.35-.41.42-.64Z"/>
      <path class="cls-1" d="M128.33,13.65c0-.34.09-.62.27-.86s.42-.39.71-.47c.09-.17.22-.4.4-.7s.4-.61.67-.96.57-.69.91-1.04.71-.66,1.12-.95.85-.52,1.32-.7.97-.27,1.51-.27c.45,0,.85.05,1.18.16s.61.26.83.46.38.43.49.7.16.56.16.87c0,.27-.04.52-.11.76-.11.44-.31.82-.61,1.15s-.65.62-1.05.86-.84.45-1.31.62-.95.3-1.42.41-.93.19-1.37.25-.82.1-1.14.13c-.07.14-.13.32-.18.53s-.08.42-.08.63c0,.45.18.8.54,1.05s.86.38,1.49.38c.37,0,.72-.04,1.05-.12s.65-.19.96-.32.58-.27.85-.42.51-.3.73-.45c.28-.19.55-.35.8-.47s.48-.19.67-.19.32.05.38.15.08.2.08.31c0,.06,0,.12,0,.18s0,.11-.02.15c-.04.2-.12.41-.23.61s-.27.38-.45.53c-.81.64-1.65,1.1-2.5,1.37s-1.77.41-2.74.41c-.19,0-.41-.01-.66-.04s-.52-.07-.79-.14-.54-.17-.81-.3-.5-.31-.71-.53-.38-.49-.5-.81-.19-.71-.19-1.16c0-.37.05-.78.15-1.23-.1-.02-.2-.07-.29-.16s-.13-.22-.13-.39ZM135.67,10.41s.02-.07.02-.11v-.11c0-.21-.08-.37-.23-.47s-.34-.16-.56-.16c-.34,0-.68.09-1.01.27s-.64.4-.94.67-.55.56-.78.87-.4.59-.53.84c.56-.05,1.08-.12,1.55-.23s.88-.24,1.22-.4.63-.34.84-.54.35-.41.42-.64Z"/>
      <path class="cls-1" d="M140.19,13.65c0-.34.09-.62.27-.86s.42-.39.71-.47c.09-.17.22-.4.4-.7s.4-.61.67-.96.57-.69.91-1.04.71-.66,1.12-.95.85-.52,1.32-.7.97-.27,1.51-.27c.45,0,.85.05,1.18.16s.61.26.83.46.38.43.49.7.16.56.16.87c0,.27-.04.52-.11.76-.11.44-.31.82-.61,1.15s-.65.62-1.05.86-.84.45-1.31.62-.95.3-1.42.41-.93.19-1.37.25-.82.1-1.14.13c-.07.14-.13.32-.18.53s-.08.42-.08.63c0,.45.18.8.54,1.05s.86.38,1.49.38c.37,0,.72-.04,1.05-.12s.65-.19.96-.32.58-.27.85-.42.51-.3.73-.45c.28-.19.55-.35.8-.47s.48-.19.67-.19.32.05.38.15.08.2.08.31c0,.06,0,.12,0,.18s0,.11-.02.15c-.04.2-.12.41-.23.61s-.27.38-.45.53c-.81.64-1.65,1.1-2.5,1.37s-1.77.41-2.74.41c-.19,0-.41-.01-.66-.04s-.52-.07-.79-.14-.54-.17-.81-.3-.5-.31-.71-.53-.38-.49-.5-.81-.19-.71-.19-1.16c0-.37.05-.78.15-1.23-.1-.02-.2-.07-.29-.16s-.13-.22-.13-.39ZM147.53,10.41s.02-.07.02-.11v-.11c0-.21-.08-.37-.23-.47s-.34-.16-.56-.16c-.34,0-.68.09-1.01.27s-.64.4-.94.67-.55.56-.78.87-.4.59-.53.84c.56-.05,1.08-.12,1.55-.23s.88-.24,1.22-.4.63-.34.84-.54.35-.41.42-.64Z"/>
      <path class="cls-1" d="M152.05,13.65c0-.34.09-.62.27-.86s.42-.39.71-.47c.09-.17.22-.4.4-.7s.4-.61.67-.96.57-.69.91-1.04.71-.66,1.12-.95.85-.52,1.32-.7.97-.27,1.51-.27c.45,0,.85.05,1.18.16s.61.26.83.46.38.43.49.7.16.56.16.87c0,.27-.04.52-.11.76-.11.44-.31.82-.61,1.15s-.65.62-1.05.86-.84.45-1.31.62-.95.3-1.42.41-.93.19-1.37.25-.82.1-1.14.13c-.07.14-.13.32-.18.53s-.08.42-.08.63c0,.45.18.8.54,1.05s.86.38,1.49.38c.37,0,.72-.04,1.05-.12s.65-.19.96-.32.58-.27.85-.42.51-.3.73-.45c.28-.19.55-.35.8-.47s.48-.19.67-.19.32.05.38.15.08.2.08.31c0,.06,0,.12,0,.18s0,.11-.02.15c-.04.2-.12.41-.23.61s-.27.38-.45.53c-.81.64-1.65,1.1-2.5,1.37s-1.77.41-2.74.41c-.19,0-.41-.01-.66-.04s-.52-.07-.79-.14-.54-.17-.81-.3-.5-.31-.71-.53-.38-.49-.5-.81-.19-.71-.19-1.16c0-.37.05-.78.15-1.23-.1-.02-.2-.07-.29-.16s-.13-.22-.13-.39ZM159.39,10.41s.02-.07.02-.11v-.11c0-.21-.08-.37-.23-.47s-.34-.16-.56-.16c-.34,0-.68.09-1.01.27s-.64.4-.94.67-.55.56-.78.87-.4.59-.53.84c.56-.05,1.08-.12,1.55-.23s.88-.24,1.22-.4.63-.34.84-.54.35-.41.42-.64Z"/>
      <path class="cls-1" d="M163.91,13.65c0-.34.09-.62.27-.86s.42-.39.71-.47c.09-.17.22-.4.4-.7s.4-.61.67-.96.57-.69.91-1.04.71-.66,1.12-.95.85-.52,1.32-.7.97-.27,1.51-.27c.45,0,.85.05,1.18.16s.61.26.83.46.38.43.49.7.16.56.16.87c0,.27-.04.52-.11.76-.11.44-.31.82-.61,1.15s-.65.62-1.05.86-.84.45-1.31.62-.95.3-1.42.41-.93.19-1.37.25-.82.1-1.14.13c-.07.14-.13.32-.18.53s-.08.42-.08.63c0,.45.18.8.54,1.05s.86.38,1.49.38c.37,0,.72-.04,1.05-.12s.65-.19.96-.32.58-.27.85-.42.51-.3.73-.45c.28-.19.55-.35.8-.47s.48-.19.67-.19.32.05.38.15.08.2.08.31c0,.06,0,.12,0,.18s0,.11-.02.15c-.04.2-.12.41-.23.61s-.27.38-.45.53c-.81.64-1.65,1.1-2.5,1.37s-1.77.41-2.74.41c-.19,0-.41-.01-.66-.04s-.52-.07-.79-.14-.54-.17-.81-.3-.5-.31-.71-.53-.38-.49-.5-.81-.19-.71-.19-1.16c0-.37.05-.78.15-1.23-.1-.02-.2-.07-.29-.16s-.13-.22-.13-.39ZM171.25,10.41s.02-.07.02-.11v-.11c0-.21-.08-.37-.23-.47s-.34-.16-.56-.16c-.34,0-.68.09-1.01.27s-.64.4-.94.67-.55.56-.78.87-.4.59-.53.84c.56-.05,1.08-.12,1.55-.23s.88-.24,1.22-.4.63-.34.84-.54.35-.41.42-.64Z"/>
      <path class="cls-1" d="M175.77,13.65c0-.34.09-.62.27-.86s.42-.39.71-.47c.09-.17.22-.4.4-.7s.4-.61.67-.96.57-.69.91-1.04.71-.66,1.12-.95.85-.52,1.32-.7.97-.27,1.51-.27c.45,0,.85.05,1.18.16s.61.26.83.46.38.43.49.7.16.56.16.87c0,.27-.04.52-.11.76-.11.44-.31.82-.61,1.15s-.65.62-1.05.86-.84.45-1.31.62-.95.3-1.42.41-.93.19-1.37.25-.82.1-1.14.13c-.07.14-.13.32-.18.53s-.08.42-.08.63c0,.45.18.8.54,1.05s.86.38,1.49.38c.37,0,.72-.04,1.05-.12s.65-.19.96-.32.58-.27.85-.42.51-.3.73-.45c.28-.19.55-.35.8-.47s.48-.19.67-.19.32.05.38.15.08.2.08.31c0,.06,0,.12,0,.18s0,.11-.02.15c-.04.2-.12.41-.23.61s-.27.38-.45.53c-.81.64-1.65,1.1-2.5,1.37s-1.77.41-2.74.41c-.19,0-.41-.01-.66-.04s-.52-.07-.79-.14-.54-.17-.81-.3-.5-.31-.71-.53-.38-.49-.5-.81-.19-.71-.19-1.16c0-.37.05-.78.15-1.23-.1-.02-.2-.07-.29-.16s-.13-.22-.13-.39ZM183.11,10.41s.02-.07.02-.11v-.11c0-.21-.08-.37-.23-.47s-.34-.16-.56-.16c-.34,0-.68.09-1.01.27s-.64.4-.94.67-.55.56-.78.87-.4.59-.53.84c.56-.05,1.08-.12,1.55-.23s.88-.24,1.22-.4.63-.34.84-.54.35-.41.42-.64Z"/>
      <path class="cls-1" d="M187.63,13.65c0-.34.09-.62.27-.86s.42-.39.71-.47c.09-.17.22-.4.4-.7s.4-.61.67-.96.57-.69.91-1.04.71-.66,1.12-.95.85-.52,1.32-.7.97-.27,1.51-.27c.45,0,.85.05,1.18.16s.61.26.83.46.38.43.49.7.16.56.16.87c0,.27-.04.52-.11.76-.11.44-.31.82-.61,1.15s-.65.62-1.05.86-.84.45-1.31.62-.95.3-1.42.41-.93.19-1.37.25-.82.1-1.14.13c-.07.14-.13.32-.18.53s-.08.42-.08.63c0,.45.18.8.54,1.05s.86.38,1.49.38c.37,0,.72-.04,1.05-.12s.65-.19.96-.32.58-.27.85-.42.51-.3.73-.45c.28-.19.55-.35.8-.47s.48-.19.67-.19.32.05.38.15.08.2.08.31c0,.06,0,.12,0,.18s0,.11-.02.15c-.04.2-.12.41-.23.61s-.27.38-.45.53c-.81.64-1.65,1.1-2.5,1.37s-1.77.41-2.74.41c-.19,0-.41-.01-.66-.04s-.52-.07-.79-.14-.54-.17-.81-.3-.5-.31-.71-.53-.38-.49-.5-.81-.19-.71-.19-1.16c0-.37.05-.78.15-1.23-.1-.02-.2-.07-.29-.16s-.13-.22-.13-.39ZM194.96,10.41s.02-.07.02-.11v-.11c0-.21-.08-.37-.23-.47s-.34-.16-.56-.16c-.34,0-.68.09-1.01.27s-.64.4-.94.67-.55.56-.78.87-.4.59-.53.84c.56-.05,1.08-.12,1.55-.23s.88-.24,1.22-.4.63-.34.84-.54.35-.41.42-.64Z"/>
      <path class="cls-1" d="M199.49,13.65c0-.34.09-.62.27-.86s.42-.39.71-.47c.09-.17.22-.4.4-.7s.4-.61.67-.96.57-.69.91-1.04.71-.66,1.12-.95.85-.52,1.32-.7.97-.27,1.51-.27c.45,0,.85.05,1.18.16s.61.26.83.46.38.43.49.7.16.56.16.87c0,.27-.04.52-.11.76-.11.44-.31.82-.61,1.15s-.65.62-1.05.86-.84.45-1.31.62-.95.3-1.42.41-.93.19-1.37.25-.82.1-1.14.13c-.07.14-.13.32-.18.53s-.08.42-.08.63c0,.45.18.8.54,1.05s.86.38,1.49.38c.37,0,.72-.04,1.05-.12s.65-.19.96-.32.58-.27.85-.42.51-.3.73-.45c.28-.19.55-.35.8-.47s.48-.19.67-.19.32.05.38.15.08.2.08.31c0,.06,0,.12,0,.18s0,.11-.02.15c-.04.2-.12.41-.23.61s-.27.38-.45.53c-.81.64-1.65,1.1-2.5,1.37s-1.77.41-2.74.41c-.19,0-.41-.01-.66-.04s-.52-.07-.79-.14-.54-.17-.81-.3-.5-.31-.71-.53-.38-.49-.5-.81-.19-.71-.19-1.16c0-.37.05-.78.15-1.23-.1-.02-.2-.07-.29-.16s-.13-.22-.13-.39ZM206.82,10.41s.02-.07.02-.11v-.11c0-.21-.08-.37-.23-.47s-.34-.16-.56-.16c-.34,0-.68.09-1.01.27s-.64.4-.94.67-.55.56-.78.87-.4.59-.53.84c.56-.05,1.08-.12,1.55-.23s.88-.24,1.22-.4.63-.34.84-.54.35-.41.42-.64Z"/>
      <path class="cls-1" d="M211.35,13.65c0-.34.09-.62.27-.86s.42-.39.71-.47c.09-.17.22-.4.4-.7s.4-.61.67-.96.57-.69.91-1.04.71-.66,1.12-.95.85-.52,1.32-.7.97-.27,1.51-.27c.45,0,.85.05,1.18.16s.61.26.83.46.38.43.49.7.16.56.16.87c0,.27-.04.52-.11.76-.11.44-.31.82-.61,1.15s-.65.62-1.05.86-.84.45-1.31.62-.95.3-1.42.41-.93.19-1.37.25-.82.1-1.14.13c-.07.14-.13.32-.18.53s-.08.42-.08.63c0,.45.18.8.54,1.05s.86.38,1.49.38c.37,0,.72-.04,1.05-.12s.65-.19.96-.32.58-.27.85-.42.51-.3.73-.45c.28-.19.55-.35.8-.47s.48-.19.67-.19.32.05.38.15.08.2.08.31c0,.06,0,.12,0,.18s0,.11-.02.15c-.04.2-.12.41-.23.61s-.27.38-.45.53c-.81.64-1.65,1.1-2.5,1.37s-1.77.41-2.74.41c-.19,0-.41-.01-.66-.04s-.52-.07-.79-.14-.54-.17-.81-.3-.5-.31-.71-.53-.38-.49-.5-.81-.19-.71-.19-1.16c0-.37.05-.78.15-1.23-.1-.02-.2-.07-.29-.16s-.13-.22-.13-.39ZM218.68,10.41s.02-.07.02-.11v-.11c0-.21-.08-.37-.23-.47s-.34-.16-.56-.16c-.34,0-.68.09-1.01.27s-.64.4-.94.67-.55.56-.78.87-.4.59-.53.84c.56-.05,1.08-.12,1.55-.23s.88-.24,1.22-.4.63-.34.84-.54.35-.41.42-.64Z"/>
      <path class="cls-1" d="M223.21,13.65c0-.34.09-.62.27-.86s.42-.39.71-.47c.09-.17.22-.4.4-.7s.4-.61.67-.96.57-.69.91-1.04.71-.66,1.12-.95.85-.52,1.32-.7.97-.27,1.51-.27c.45,0,.85.05,1.18.16s.61.26.83.46.38.43.49.7.16.56.16.87c0,.27-.04.52-.11.76-.11.44-.31.82-.61,1.15s-.65.62-1.05.86-.84.45-1.31.62-.95.3-1.42.41-.93.19-1.37.25-.82.1-1.14.13c-.07.14-.13.32-.18.53s-.08.42-.08.63c0,.45.18.8.54,1.05s.86.38,1.49.38c.37,0,.72-.04,1.05-.12s.65-.19.96-.32.58-.27.85-.42.51-.3.73-.45c.28-.19.55-.35.8-.47s.48-.19.67-.19.32.05.38.15.08.2.08.31c0,.06,0,.12,0,.18s0,.11-.02.15c-.04.2-.12.41-.23.61s-.27.38-.45.53c-.81.64-1.65,1.1-2.5,1.37s-1.77.41-2.74.41c-.19,0-.41-.01-.66-.04s-.52-.07-.79-.14-.54-.17-.81-.3-.5-.31-.71-.53-.38-.49-.5-.81-.19-.71-.19-1.16c0-.37.05-.78.15-1.23-.1-.02-.2-.07-.29-.16s-.13-.22-.13-.39ZM230.54,10.41s.02-.07.02-.11v-.11c0-.21-.08-.37-.23-.47s-.34-.16-.56-.16c-.34,0-.68.09-1.01.27s-.64.4-.94.67-.55.56-.78.87-.4.59-.53.84c.56-.05,1.08-.12,1.55-.23s.88-.24,1.22-.4.63-.34.84-.54.35-.41.42-.64Z"/>
      <path class="cls-1" d="M235.07,13.65c0-.34.09-.62.27-.86s.42-.39.71-.47c.09-.17.22-.4.4-.7s.4-.61.67-.96.57-.69.91-1.04.71-.66,1.12-.95.85-.52,1.32-.7.97-.27,1.51-.27c.45,0,.85.05,1.18.16s.61.26.83.46.38.43.49.7.16.56.16.87c0,.27-.04.52-.11.76-.11.44-.31.82-.61,1.15s-.65.62-1.05.86-.84.45-1.31.62-.95.3-1.42.41-.93.19-1.37.25-.82.1-1.14.13c-.07.14-.13.32-.18.53s-.08.42-.08.63c0,.45.18.8.54,1.05s.86.38,1.49.38c.37,0,.72-.04,1.05-.12s.65-.19.96-.32.58-.27.85-.42.51-.3.73-.45c.28-.19.55-.35.8-.47s.48-.19.67-.19.32.05.38.15.08.2.08.31c0,.06,0,.12,0,.18s0,.11-.02.15c-.04.2-.12.41-.23.61s-.27.38-.45.53c-.81.64-1.65,1.1-2.5,1.37s-1.77.41-2.74.41c-.19,0-.41-.01-.66-.04s-.52-.07-.79-.14-.54-.17-.81-.3-.5-.31-.71-.53-.38-.49-.5-.81-.19-.71-.19-1.16c0-.37.05-.78.15-1.23-.1-.02-.2-.07-.29-.16s-.13-.22-.13-.39ZM242.4,10.41s.02-.07.02-.11v-.11c0-.21-.08-.37-.23-.47s-.34-.16-.56-.16c-.34,0-.68.09-1.01.27s-.64.4-.94.67-.55.56-.78.87-.4.59-.53.84c.56-.05,1.08-.12,1.55-.23s.88-.24,1.22-.4.63-.34.84-.54.35-.41.42-.64Z"/>
      <path class="cls-1" d="M246.93,13.65c0-.34.09-.62.27-.86s.42-.39.71-.47c.09-.17.22-.4.4-.7s.4-.61.67-.96.57-.69.91-1.04.71-.66,1.12-.95.85-.52,1.32-.7.97-.27,1.51-.27c.45,0,.85.05,1.18.16s.61.26.83.46.38.43.49.7.16.56.16.87c0,.27-.04.52-.11.76-.11.44-.31.82-.61,1.15s-.65.62-1.05.86-.84.45-1.31.62-.95.3-1.42.41-.93.19-1.37.25-.82.1-1.14.13c-.07.14-.13.32-.18.53s-.08.42-.08.63c0,.45.18.8.54,1.05s.86.38,1.49.38c.37,0,.72-.04,1.05-.12s.65-.19.96-.32.58-.27.85-.42.51-.3.73-.45c.28-.19.55-.35.8-.47s.48-.19.67-.19.32.05.38.15.08.2.08.31c0,.06,0,.12,0,.18s0,.11-.02.15c-.04.2-.12.41-.23.61s-.27.38-.45.53c-.81.64-1.65,1.1-2.5,1.37s-1.77.41-2.74.41c-.19,0-.41-.01-.66-.04s-.52-.07-.79-.14-.54-.17-.81-.3-.5-.31-.71-.53-.38-.49-.5-.81-.19-.71-.19-1.16c0-.37.05-.78.15-1.23-.1-.02-.2-.07-.29-.16s-.13-.22-.13-.39ZM254.26,10.41s.02-.07.02-.11v-.11c0-.21-.08-.37-.23-.47s-.34-.16-.56-.16c-.34,0-.68.09-1.01.27s-.64.4-.94.67-.55.56-.78.87-.4.59-.53.84c.56-.05,1.08-.12,1.55-.23s.88-.24,1.22-.4.63-.34.84-.54.35-.41.42-.64Z"/>
      <path class="cls-1" d="M258.79,13.65c0-.34.09-.62.27-.86s.42-.39.71-.47c.09-.17.22-.4.4-.7s.4-.61.67-.96.57-.69.91-1.04.71-.66,1.12-.95.85-.52,1.32-.7.97-.27,1.51-.27c.45,0,.85.05,1.18.16s.61.26.83.46.38.43.49.7.16.56.16.87c0,.27-.04.52-.11.76-.11.44-.31.82-.61,1.15s-.65.62-1.05.86-.84.45-1.31.62-.95.3-1.42.41-.93.19-1.37.25-.82.1-1.14.13c-.07.14-.13.32-.18.53s-.08.42-.08.63c0,.45.18.8.54,1.05s.86.38,1.49.38c.37,0,.72-.04,1.05-.12s.65-.19.96-.32.58-.27.85-.42.51-.3.73-.45c.28-.19.55-.35.8-.47s.48-.19.67-.19.32.05.38.15.08.2.08.31c0,.06,0,.12,0,.18s0,.11-.02.15c-.04.2-.12.41-.23.61s-.27.38-.45.53c-.81.64-1.65,1.1-2.5,1.37s-1.77.41-2.74.41c-.19,0-.41-.01-.66-.04s-.52-.07-.79-.14-.54-.17-.81-.3-.5-.31-.71-.53-.38-.49-.5-.81-.19-.71-.19-1.16c0-.37.05-.78.15-1.23-.1-.02-.2-.07-.29-.16s-.13-.22-.13-.39ZM266.12,10.41s.02-.07.02-.11v-.11c0-.21-.08-.37-.23-.47s-.34-.16-.56-.16c-.34,0-.68.09-1.01.27s-.64.4-.94.67-.55.56-.78.87-.4.59-.53.84c.56-.05,1.08-.12,1.55-.23s.88-.24,1.22-.4.63-.34.84-.54.35-.41.42-.64Z"/>
      <path class="cls-1" d="M270.64,13.65c0-.34.09-.62.27-.86s.42-.39.71-.47c.09-.17.22-.4.4-.7s.4-.61.67-.96.57-.69.91-1.04.71-.66,1.12-.95.85-.52,1.32-.7.97-.27,1.51-.27c.45,0,.85.05,1.18.16s.61.26.83.46.38.43.49.7.16.56.16.87c0,.27-.04.52-.11.76-.11.44-.31.82-.61,1.15s-.65.62-1.05.86-.84.45-1.31.62-.95.3-1.42.41-.93.19-1.37.25-.82.1-1.14.13c-.07.14-.13.32-.18.53s-.08.42-.08.63c0,.45.18.8.54,1.05s.86.38,1.49.38c.37,0,.72-.04,1.05-.12s.65-.19.96-.32.58-.27.85-.42.51-.3.73-.45c.28-.19.55-.35.8-.47s.48-.19.67-.19.32.05.38.15.08.2.08.31c0,.06,0,.12,0,.18s0,.11-.02.15c-.04.2-.12.41-.23.61s-.27.38-.45.53c-.81.64-1.65,1.1-2.5,1.37s-1.77.41-2.74.41c-.19,0-.41-.01-.66-.04s-.52-.07-.79-.14-.54-.17-.81-.3-.5-.31-.71-.53-.38-.49-.5-.81-.19-.71-.19-1.16c0-.37.05-.78.15-1.23-.1-.02-.2-.07-.29-.16s-.13-.22-.13-.39ZM277.98,10.41s.02-.07.02-.11v-.11c0-.21-.08-.37-.23-.47s-.34-.16-.56-.16c-.34,0-.68.09-1.01.27s-.64.4-.94.67-.55.56-.78.87-.4.59-.53.84c.56-.05,1.08-.12,1.55-.23s.88-.24,1.22-.4.63-.34.84-.54.35-.41.42-.64Z"/>
      <path class="cls-1" d="M282.5,13.65c0-.34.09-.62.27-.86s.42-.39.71-.47c.09-.17.22-.4.4-.7s.4-.61.67-.96.57-.69.91-1.04.71-.66,1.12-.95.85-.52,1.32-.7.97-.27,1.51-.27c.45,0,.85.05,1.18.16s.61.26.83.46.38.43.49.7.16.56.16.87c0,.27-.04.52-.11.76-.11.44-.31.82-.61,1.15s-.65.62-1.05.86-.84.45-1.31.62-.95.3-1.42.41-.93.19-1.37.25-.82.1-1.14.13c-.07.14-.13.32-.18.53s-.08.42-.08.63c0,.45.18.8.54,1.05s.86.38,1.49.38c.37,0,.72-.04,1.05-.12s.65-.19.96-.32.58-.27.85-.42.51-.3.73-.45c.28-.19.55-.35.8-.47s.48-.19.67-.19.32.05.38.15.08.2.08.31c0,.06,0,.12,0,.18s0,.11-.02.15c-.04.2-.12.41-.23.61s-.27.38-.45.53c-.81.64-1.65,1.1-2.5,1.37s-1.77.41-2.74.41c-.19,0-.41-.01-.66-.04s-.52-.07-.79-.14-.54-.17-.81-.3-.5-.31-.71-.53-.38-.49-.5-.81-.19-.71-.19-1.16c0-.37.05-.78.15-1.23-.1-.02-.2-.07-.29-.16s-.13-.22-.13-.39ZM289.84,10.41s.02-.07.02-.11v-.11c0-.21-.08-.37-.23-.47s-.34-.16-.56-.16c-.34,0-.68.09-1.01.27s-.64.4-.94.67-.55.56-.78.87-.4.59-.53.84c.56-.05,1.08-.12,1.55-.23s.88-.24,1.22-.4.63-.34.84-.54.35-.41.42-.64Z"/>
      <path class="cls-1" d="M294.36,13.65c0-.34.09-.62.27-.86s.42-.39.71-.47c.09-.17.22-.4.4-.7s.4-.61.67-.96.57-.69.91-1.04.71-.66,1.12-.95.85-.52,1.32-.7.97-.27,1.51-.27c.45,0,.85.05,1.18.16s.61.26.83.46.38.43.49.7.16.56.16.87c0,.27-.04.52-.11.76-.11.44-.31.82-.61,1.15s-.65.62-1.05.86-.84.45-1.31.62-.95.3-1.42.41-.93.19-1.37.25-.82.1-1.14.13c-.07.14-.13.32-.18.53s-.08.42-.08.63c0,.45.18.8.54,1.05s.86.38,1.49.38c.37,0,.72-.04,1.05-.12s.65-.19.96-.32.58-.27.85-.42.51-.3.73-.45c.28-.19.55-.35.8-.47s.48-.19.67-.19.32.05.38.15.08.2.08.31c0,.06,0,.12,0,.18s0,.11-.02.15c-.04.2-.12.41-.23.61s-.27.38-.45.53c-.81.64-1.65,1.1-2.5,1.37s-1.77.41-2.74.41c-.19,0-.41-.01-.66-.04s-.52-.07-.79-.14-.54-.17-.81-.3-.5-.31-.71-.53-.38-.49-.5-.81-.19-.71-.19-1.16c0-.37.05-.78.15-1.23-.1-.02-.2-.07-.29-.16s-.13-.22-.13-.39ZM301.7,10.41s.02-.07.02-.11v-.11c0-.21-.08-.37-.23-.47s-.34-.16-.56-.16c-.34,0-.68.09-1.01.27s-.64.4-.94.67-.55.56-.78.87-.4.59-.53.84c.56-.05,1.08-.12,1.55-.23s.88-.24,1.22-.4.63-.34.84-.54.35-.41.42-.64Z"/>
      <path class="cls-1" d="M306.22,13.65c0-.34.09-.62.27-.86s.42-.39.71-.47c.09-.17.22-.4.4-.7s.4-.61.67-.96.57-.69.91-1.04.71-.66,1.12-.95.85-.52,1.32-.7.97-.27,1.51-.27c.45,0,.85.05,1.18.16s.61.26.83.46.38.43.49.7.16.56.16.87c0,.27-.04.52-.11.76-.11.44-.31.82-.61,1.15s-.65.62-1.05.86-.84.45-1.31.62-.95.3-1.42.41-.93.19-1.37.25-.82.1-1.14.13c-.07.14-.13.32-.18.53s-.08.42-.08.63c0,.45.18.8.54,1.05s.86.38,1.49.38c.37,0,.72-.04,1.05-.12s.65-.19.96-.32.58-.27.85-.42.51-.3.73-.45c.28-.19.55-.35.8-.47s.48-.19.67-.19.32.05.38.15.08.2.08.31c0,.06,0,.12,0,.18s0,.11-.02.15c-.04.2-.12.41-.23.61s-.27.38-.45.53c-.81.64-1.65,1.1-2.5,1.37s-1.77.41-2.74.41c-.19,0-.41-.01-.66-.04s-.52-.07-.79-.14-.54-.17-.81-.3-.5-.31-.71-.53-.38-.49-.5-.81-.19-.71-.19-1.16c0-.37.05-.78.15-1.23-.1-.02-.2-.07-.29-.16s-.13-.22-.13-.39ZM313.56,10.41s.02-.07.02-.11v-.11c0-.21-.08-.37-.23-.47s-.34-.16-.56-.16c-.34,0-.68.09-1.01.27s-.64.4-.94.67-.55.56-.78.87-.4.59-.53.84c.56-.05,1.08-.12,1.55-.23s.88-.24,1.22-.4.63-.34.84-.54.35-.41.42-.64Z"/>
      <path class="cls-1" d="M318.08,13.65c0-.34.09-.62.27-.86s.42-.39.71-.47c.09-.17.22-.4.4-.7s.4-.61.67-.96.57-.69.91-1.04.71-.66,1.12-.95.85-.52,1.32-.7.97-.27,1.51-.27c.45,0,.85.05,1.18.16s.61.26.83.46.38.43.49.7.16.56.16.87c0,.27-.04.52-.11.76-.11.44-.31.82-.61,1.15s-.65.62-1.05.86-.84.45-1.31.62-.95.3-1.42.41-.93.19-1.37.25-.82.1-1.14.13c-.07.14-.13.32-.18.53s-.08.42-.08.63c0,.45.18.8.54,1.05s.86.38,1.49.38c.37,0,.72-.04,1.05-.12s.65-.19.96-.32.58-.27.85-.42.51-.3.73-.45c.28-.19.55-.35.8-.47s.48-.19.67-.19.32.05.38.15.08.2.08.31c0,.06,0,.12,0,.18s0,.11-.02.15c-.04.2-.12.41-.23.61s-.27.38-.45.53c-.81.64-1.65,1.1-2.5,1.37s-1.77.41-2.74.41c-.19,0-.41-.01-.66-.04s-.52-.07-.79-.14-.54-.17-.81-.3-.5-.31-.71-.53-.38-.49-.5-.81-.19-.71-.19-1.16c0-.37.05-.78.15-1.23-.1-.02-.2-.07-.29-.16s-.13-.22-.13-.39ZM325.42,10.41s.02-.07.02-.11v-.11c0-.21-.08-.37-.23-.47s-.34-.16-.56-.16c-.34,0-.68.09-1.01.27s-.64.4-.94.67-.55.56-.78.87-.4.59-.53.84c.56-.05,1.08-.12,1.55-.23s.88-.24,1.22-.4.63-.34.84-.54.35-.41.42-.64Z"/>
      <path class="cls-1" d="M329.94,13.65c0-.34.09-.62.27-.86s.42-.39.71-.47c.09-.17.22-.4.4-.7s.4-.61.67-.96.57-.69.91-1.04.71-.66,1.12-.95.85-.52,1.32-.7.97-.27,1.51-.27c.45,0,.85.05,1.18.16s.61.26.83.46.38.43.49.7.16.56.16.87c0,.27-.04.52-.11.76-.11.44-.31.82-.61,1.15s-.65.62-1.05.86-.84.45-1.31.62-.95.3-1.42.41-.93.19-1.37.25-.82.1-1.14.13c-.07.14-.13.32-.18.53s-.08.42-.08.63c0,.45.18.8.54,1.05s.86.38,1.49.38c.37,0,.72-.04,1.05-.12s.65-.19.96-.32.58-.27.85-.42.51-.3.73-.45c.28-.19.55-.35.8-.47s.48-.19.67-.19.32.05.38.15.08.2.08.31c0,.06,0,.12,0,.18s0,.11-.02.15c-.04.2-.12.41-.23.61s-.27.38-.45.53c-.81.64-1.65,1.1-2.5,1.37s-1.77.41-2.74.41c-.19,0-.41-.01-.66-.04s-.52-.07-.79-.14-.54-.17-.81-.3-.5-.31-.71-.53-.38-.49-.5-.81-.19-.71-.19-1.16c0-.37.05-.78.15-1.23-.1-.02-.2-.07-.29-.16s-.13-.22-.13-.39ZM337.28,10.41s.02-.07.02-.11v-.11c0-.21-.08-.37-.23-.47s-.34-.16-.56-.16c-.34,0-.68.09-1.01.27s-.64.4-.94.67-.55.56-.78.87-.4.59-.53.84c.56-.05,1.08-.12,1.55-.23s.88-.24,1.22-.4.63-.34.84-.54.35-.41.42-.64Z"/>
      <path class="cls-1" d="M341.8,13.65c0-.34.09-.62.27-.86s.42-.39.71-.47c.09-.17.22-.4.4-.7s.4-.61.67-.96.57-.69.91-1.04.71-.66,1.12-.95.85-.52,1.32-.7.97-.27,1.51-.27c.45,0,.85.05,1.18.16s.61.26.83.46.38.43.49.7.16.56.16.87c0,.27-.04.52-.11.76-.11.44-.31.82-.61,1.15s-.65.62-1.05.86-.84.45-1.31.62-.95.3-1.42.41-.93.19-1.37.25-.82.1-1.14.13c-.07.14-.13.32-.18.53s-.08.42-.08.63c0,.45.18.8.54,1.05s.86.38,1.49.38c.37,0,.72-.04,1.05-.12s.65-.19.96-.32.58-.27.85-.42.51-.3.73-.45c.28-.19.55-.35.8-.47s.48-.19.67-.19.32.05.38.15.08.2.08.31c0,.06,0,.12,0,.18s0,.11-.02.15c-.04.2-.12.41-.23.61s-.27.38-.45.53c-.81.64-1.65,1.1-2.5,1.37s-1.77.41-2.74.41c-.19,0-.41-.01-.66-.04s-.52-.07-.79-.14-.54-.17-.81-.3-.5-.31-.71-.53-.38-.49-.5-.81-.19-.71-.19-1.16c0-.37.05-.78.15-1.23-.1-.02-.2-.07-.29-.16s-.13-.22-.13-.39ZM349.14,10.41s.02-.07.02-.11v-.11c0-.21-.08-.37-.23-.47s-.34-.16-.56-.16c-.34,0-.68.09-1.01.27s-.64.4-.94.67-.55.56-.78.87-.4.59-.53.84c.56-.05,1.08-.12,1.55-.23s.88-.24,1.22-.4.63-.34.84-.54.35-.41.42-.64Z"/>
      <path class="cls-1" d="M353.66,13.65c0-.34.09-.62.27-.86s.42-.39.71-.47c.09-.17.22-.4.4-.7s.4-.61.67-.96.57-.69.91-1.04.71-.66,1.12-.95.85-.52,1.32-.7.97-.27,1.51-.27c.45,0,.85.05,1.18.16s.61.26.83.46.38.43.49.7.16.56.16.87c0,.27-.04.52-.11.76-.11.44-.31.82-.61,1.15s-.65.62-1.05.86-.84.45-1.31.62-.95.3-1.42.41-.93.19-1.37.25-.82.1-1.14.13c-.07.14-.13.32-.18.53s-.08.42-.08.63c0,.45.18.8.54,1.05s.86.38,1.49.38c.37,0,.72-.04,1.05-.12s.65-.19.96-.32.58-.27.85-.42.51-.3.73-.45c.28-.19.55-.35.8-.47s.48-.19.67-.19.32.05.38.15.08.2.08.31c0,.06,0,.12,0,.18s0,.11-.02.15c-.04.2-.12.41-.23.61s-.27.38-.45.53c-.81.64-1.65,1.1-2.5,1.37s-1.77.41-2.74.41c-.19,0-.41-.01-.66-.04s-.52-.07-.79-.14-.54-.17-.81-.3-.5-.31-.71-.53-.38-.49-.5-.81-.19-.71-.19-1.16c0-.37.05-.78.15-1.23-.1-.02-.2-.07-.29-.16s-.13-.22-.13-.39ZM361,10.41s.02-.07.02-.11v-.11c0-.21-.08-.37-.23-.47s-.34-.16-.56-.16c-.34,0-.68.09-1.01.27s-.64.4-.94.67-.55.56-.78.87-.4.59-.53.84c.56-.05,1.08-.12,1.55-.23s.88-.24,1.22-.4.63-.34.84-.54.35-.41.42-.64Z"/>
      <path class="cls-1" d="M365.52,13.65c0-.34.09-.62.27-.86s.42-.39.71-.47c.09-.17.22-.4.4-.7s.4-.61.67-.96.57-.69.91-1.04.71-.66,1.12-.95.85-.52,1.32-.7.97-.27,1.51-.27c.45,0,.85.05,1.18.16s.61.26.83.46.38.43.49.7.16.56.16.87c0,.27-.04.52-.11.76-.11.44-.31.82-.61,1.15s-.65.62-1.05.86-.84.45-1.31.62-.95.3-1.42.41-.93.19-1.37.25-.82.1-1.14.13c-.07.14-.13.32-.18.53s-.08.42-.08.63c0,.45.18.8.54,1.05s.86.38,1.49.38c.37,0,.72-.04,1.05-.12s.65-.19.96-.32.58-.27.85-.42.51-.3.73-.45c.28-.19.55-.35.8-.47s.48-.19.67-.19.32.05.38.15.08.2.08.31c0,.06,0,.12,0,.18s0,.11-.02.15c-.04.2-.12.41-.23.61s-.27.38-.45.53c-.81.64-1.65,1.1-2.5,1.37s-1.77.41-2.74.41c-.19,0-.41-.01-.66-.04s-.52-.07-.79-.14-.54-.17-.81-.3-.5-.31-.71-.53-.38-.49-.5-.81-.19-.71-.19-1.16c0-.37.05-.78.15-1.23-.1-.02-.2-.07-.29-.16s-.13-.22-.13-.39ZM372.86,10.41s.02-.07.02-.11v-.11c0-.21-.08-.37-.23-.47s-.34-.16-.56-.16c-.34,0-.68.09-1.01.27s-.64.4-.94.67-.55.56-.78.87-.4.59-.53.84c.56-.05,1.08-.12,1.55-.23s.88-.24,1.22-.4.63-.34.84-.54.35-.41.42-.64Z"/>
      <path class="cls-1" d="M377.38,13.65c0-.34.09-.62.27-.86s.42-.39.71-.47c.09-.17.22-.4.4-.7s.4-.61.67-.96.57-.69.91-1.04.71-.66,1.12-.95.85-.52,1.32-.7.97-.27,1.51-.27c.45,0,.85.05,1.18.16s.61.26.83.46.38.43.49.7.16.56.16.87c0,.27-.04.52-.11.76-.11.44-.31.82-.61,1.15s-.65.62-1.05.86-.84.45-1.31.62-.95.3-1.42.41-.93.19-1.37.25-.82.1-1.14.13c-.07.14-.13.32-.18.53s-.08.42-.08.63c0,.45.18.8.54,1.05s.86.38,1.49.38c.37,0,.72-.04,1.05-.12s.65-.19.96-.32.58-.27.85-.42.51-.3.73-.45c.28-.19.55-.35.8-.47s.48-.19.67-.19.32.05.38.15.08.2.08.31c0,.06,0,.12,0,.18s0,.11-.02.15c-.04.2-.12.41-.23.61s-.27.38-.45.53c-.81.64-1.65,1.1-2.5,1.37s-1.77.41-2.74.41c-.19,0-.41-.01-.66-.04s-.52-.07-.79-.14-.54-.17-.81-.3-.5-.31-.71-.53-.38-.49-.5-.81-.19-.71-.19-1.16c0-.37.05-.78.15-1.23-.1-.02-.2-.07-.29-.16s-.13-.22-.13-.39ZM384.71,10.41s.02-.07.02-.11v-.11c0-.21-.08-.37-.23-.47s-.34-.16-.56-.16c-.34,0-.68.09-1.01.27s-.64.4-.94.67-.55.56-.78.87-.4.59-.53.84c.56-.05,1.08-.12,1.55-.23s.88-.24,1.22-.4.63-.34.84-.54.35-.41.42-.64Z"/>
      <path class="cls-1" d="M389.24,13.65c0-.34.09-.62.27-.86s.42-.39.71-.47c.09-.17.22-.4.4-.7s.4-.61.67-.96.57-.69.91-1.04.71-.66,1.12-.95.85-.52,1.32-.7.97-.27,1.51-.27c.45,0,.85.05,1.18.16s.61.26.83.46.38.43.49.7.16.56.16.87c0,.27-.04.52-.11.76-.11.44-.31.82-.61,1.15s-.65.62-1.05.86-.84.45-1.31.62-.95.3-1.42.41-.93.19-1.37.25-.82.1-1.14.13c-.07.14-.13.32-.18.53s-.08.42-.08.63c0,.45.18.8.54,1.05s.86.38,1.49.38c.37,0,.72-.04,1.05-.12s.65-.19.96-.32.58-.27.85-.42.51-.3.73-.45c.28-.19.55-.35.8-.47s.48-.19.67-.19.32.05.38.15.08.2.08.31c0,.06,0,.12,0,.18s0,.11-.02.15c-.04.2-.12.41-.23.61s-.27.38-.45.53c-.81.64-1.65,1.1-2.5,1.37s-1.77.41-2.74.41c-.19,0-.41-.01-.66-.04s-.52-.07-.79-.14-.54-.17-.81-.3-.5-.31-.71-.53-.38-.49-.5-.81-.19-.71-.19-1.16c0-.37.05-.78.15-1.23-.1-.02-.2-.07-.29-.16s-.13-.22-.13-.39ZM396.57,10.41s.02-.07.02-.11v-.11c0-.21-.08-.37-.23-.47s-.34-.16-.56-.16c-.34,0-.68.09-1.01.27s-.64.4-.94.67-.55.56-.78.87-.4.59-.53.84c.56-.05,1.08-.12,1.55-.23s.88-.24,1.22-.4.63-.34.84-.54.35-.41.42-.64Z"/>
      <path class="cls-1" d="M401.1,13.65c0-.34.09-.62.27-.86s.42-.39.71-.47c.09-.17.22-.4.4-.7s.4-.61.67-.96.57-.69.91-1.04.71-.66,1.12-.95.85-.52,1.32-.7.97-.27,1.51-.27c.45,0,.85.05,1.18.16s.61.26.83.46.38.43.49.7.16.56.16.87c0,.27-.04.52-.11.76-.11.44-.31.82-.61,1.15s-.65.62-1.05.86-.84.45-1.31.62-.95.3-1.42.41-.93.19-1.37.25-.82.1-1.14.13c-.07.14-.13.32-.18.53s-.08.42-.08.63c0,.45.18.8.54,1.05s.86.38,1.49.38c.37,0,.72-.04,1.05-.12s.65-.19.96-.32.58-.27.85-.42.51-.3.73-.45c.28-.19.55-.35.8-.47s.48-.19.67-.19.32.05.38.15.08.2.08.31c0,.06,0,.12,0,.18s0,.11-.02.15c-.04.2-.12.41-.23.61s-.27.38-.45.53c-.81.64-1.65,1.1-2.5,1.37s-1.77.41-2.74.41c-.19,0-.41-.01-.66-.04s-.52-.07-.79-.14-.54-.17-.81-.3-.5-.31-.71-.53-.38-.49-.5-.81-.19-.71-.19-1.16c0-.37.05-.78.15-1.23-.1-.02-.2-.07-.29-.16s-.13-.22-.13-.39ZM408.43,10.41s.02-.07.02-.11v-.11c0-.21-.08-.37-.23-.47s-.34-.16-.56-.16c-.34,0-.68.09-1.01.27s-.64.4-.94.67-.55.56-.78.87-.4.59-.53.84c.56-.05,1.08-.12,1.55-.23s.88-.24,1.22-.4.63-.34.84-.54.35-.41.42-.64Z"/>
      <path class="cls-1" d="M412.96,13.65c0-.34.09-.62.27-.86s.42-.39.71-.47c.09-.17.22-.4.4-.7s.4-.61.67-.96.57-.69.91-1.04.71-.66,1.12-.95.85-.52,1.32-.7.97-.27,1.51-.27c.45,0,.85.05,1.18.16s.61.26.83.46.38.43.49.7.16.56.16.87c0,.27-.04.52-.11.76-.11.44-.31.82-.61,1.15s-.65.62-1.05.86-.84.45-1.31.62-.95.3-1.42.41-.93.19-1.37.25-.82.1-1.14.13c-.07.14-.13.32-.18.53s-.08.42-.08.63c0,.45.18.8.54,1.05s.86.38,1.49.38c.37,0,.72-.04,1.05-.12s.65-.19.96-.32.58-.27.85-.42.51-.3.73-.45c.28-.19.55-.35.8-.47s.48-.19.67-.19.32.05.38.15.08.2.08.31c0,.06,0,.12,0,.18s0,.11-.02.15c-.04.2-.12.41-.23.61s-.27.38-.45.53c-.81.64-1.65,1.1-2.5,1.37s-1.77.41-2.74.41c-.19,0-.41-.01-.66-.04s-.52-.07-.79-.14-.54-.17-.81-.3-.5-.31-.71-.53-.38-.49-.5-.81-.19-.71-.19-1.16c0-.37.05-.78.15-1.23-.1-.02-.2-.07-.29-.16s-.13-.22-.13-.39ZM420.29,10.41s.02-.07.02-.11v-.11c0-.21-.08-.37-.23-.47s-.34-.16-.56-.16c-.34,0-.68.09-1.01.27s-.64.4-.94.67-.55.56-.78.87-.4.59-.53.84c.56-.05,1.08-.12,1.55-.23s.88-.24,1.22-.4.63-.34.84-.54.35-.41.42-.64Z"/>
      <path class="cls-1" d="M424.82,13.65c0-.34.09-.62.27-.86s.42-.39.71-.47c.09-.17.22-.4.4-.7s.4-.61.67-.96.57-.69.91-1.04.71-.66,1.12-.95.85-.52,1.32-.7.97-.27,1.51-.27c.45,0,.85.05,1.18.16s.61.26.83.46.38.43.49.7.16.56.16.87c0,.27-.04.52-.11.76-.11.44-.31.82-.61,1.15s-.65.62-1.05.86-.84.45-1.31.62-.95.3-1.42.41-.93.19-1.37.25-.82.1-1.14.13c-.07.14-.13.32-.18.53s-.08.42-.08.63c0,.45.18.8.54,1.05s.86.38,1.49.38c.37,0,.72-.04,1.05-.12s.65-.19.96-.32.58-.27.85-.42.51-.3.73-.45c.28-.19.55-.35.8-.47s.48-.19.67-.19.32.05.38.15.08.2.08.31c0,.06,0,.12,0,.18s0,.11-.02.15c-.04.2-.12.41-.23.61s-.27.38-.45.53c-.81.64-1.65,1.1-2.5,1.37s-1.77.41-2.74.41c-.19,0-.41-.01-.66-.04s-.52-.07-.79-.14-.54-.17-.81-.3-.5-.31-.71-.53-.38-.49-.5-.81-.19-.71-.19-1.16c0-.37.05-.78.15-1.23-.1-.02-.2-.07-.29-.16s-.13-.22-.13-.39ZM432.15,10.41s.02-.07.02-.11v-.11c0-.21-.08-.37-.23-.47s-.34-.16-.56-.16c-.34,0-.68.09-1.01.27s-.64.4-.94.67-.55.56-.78.87-.4.59-.53.84c.56-.05,1.08-.12,1.55-.23s.88-.24,1.22-.4.63-.34.84-.54.35-.41.42-.64Z"/>
      <path class="cls-1" d="M436.68,13.65c0-.34.09-.62.27-.86s.42-.39.71-.47c.09-.17.22-.4.4-.7s.4-.61.67-.96.57-.69.91-1.04.71-.66,1.12-.95.85-.52,1.32-.7.97-.27,1.51-.27c.45,0,.85.05,1.18.16s.61.26.83.46.38.43.49.7.16.56.16.87c0,.27-.04.52-.11.76-.11.44-.31.82-.61,1.15s-.65.62-1.05.86-.84.45-1.31.62-.95.3-1.42.41-.93.19-1.37.25-.82.1-1.14.13c-.07.14-.13.32-.18.53s-.08.42-.08.63c0,.45.18.8.54,1.05s.86.38,1.49.38c.37,0,.72-.04,1.05-.12s.65-.19.96-.32.58-.27.85-.42.51-.3.73-.45c.28-.19.55-.35.8-.47s.48-.19.67-.19.32.05.38.15.08.2.08.31c0,.06,0,.12,0,.18s0,.11-.02.15c-.04.2-.12.41-.23.61s-.27.38-.45.53c-.81.64-1.65,1.1-2.5,1.37s-1.77.41-2.74.41c-.19,0-.41-.01-.66-.04s-.52-.07-.79-.14-.54-.17-.81-.3-.5-.31-.71-.53-.38-.49-.5-.81-.19-.71-.19-1.16c0-.37.05-.78.15-1.23-.1-.02-.2-.07-.29-.16s-.13-.22-.13-.39ZM444.01,10.41s.02-.07.02-.11v-.11c0-.21-.08-.37-.23-.47s-.34-.16-.56-.16c-.34,0-.68.09-1.01.27s-.64.4-.94.67-.55.56-.78.87-.4.59-.53.84c.56-.05,1.08-.12,1.55-.23s.88-.24,1.22-.4.63-.34.84-.54.35-.41.42-.64Z"/>
      <path class="cls-1" d="M448.54,13.65c0-.34.09-.62.27-.86s.42-.39.71-.47c.09-.17.22-.4.4-.7s.4-.61.67-.96.57-.69.91-1.04.71-.66,1.12-.95.85-.52,1.32-.7.97-.27,1.51-.27c.45,0,.85.05,1.18.16s.61.26.83.46.38.43.49.7.16.56.16.87c0,.27-.04.52-.11.76-.11.44-.31.82-.61,1.15s-.65.62-1.05.86-.84.45-1.31.62-.95.3-1.42.41-.93.19-1.37.25-.82.1-1.14.13c-.07.14-.13.32-.18.53s-.08.42-.08.63c0,.45.18.8.54,1.05s.86.38,1.49.38c.37,0,.72-.04,1.05-.12s.65-.19.96-.32.58-.27.85-.42.51-.3.73-.45c.28-.19.55-.35.8-.47s.48-.19.67-.19.32.05.38.15.08.2.08.31c0,.06,0,.12,0,.18s0,.11-.02.15c-.04.2-.12.41-.23.61s-.27.38-.45.53c-.81.64-1.65,1.1-2.5,1.37s-1.77.41-2.74.41c-.19,0-.41-.01-.66-.04s-.52-.07-.79-.14-.54-.17-.81-.3-.5-.31-.71-.53-.38-.49-.5-.81-.19-.71-.19-1.16c0-.37.05-.78.15-1.23-.1-.02-.2-.07-.29-.16s-.13-.22-.13-.39ZM455.87,10.41s.02-.07.02-.11v-.11c0-.21-.08-.37-.23-.47s-.34-.16-.56-.16c-.34,0-.68.09-1.01.27s-.64.4-.94.67-.55.56-.78.87-.4.59-.53.84c.56-.05,1.08-.12,1.55-.23s.88-.24,1.22-.4.63-.34.84-.54.35-.41.42-.64Z"/>
      <path class="cls-1" d="M460.39,13.65c0-.34.09-.62.27-.86s.42-.39.71-.47c.09-.17.22-.4.4-.7s.4-.61.67-.96.57-.69.91-1.04.71-.66,1.12-.95.85-.52,1.32-.7.97-.27,1.51-.27c.45,0,.85.05,1.18.16s.61.26.83.46.38.43.49.7.16.56.16.87c0,.27-.04.52-.11.76-.11.44-.31.82-.61,1.15s-.65.62-1.05.86-.84.45-1.31.62-.95.3-1.42.41-.93.19-1.37.25-.82.1-1.14.13c-.07.14-.13.32-.18.53s-.08.42-.08.63c0,.45.18.8.54,1.05s.86.38,1.49.38c.37,0,.72-.04,1.05-.12s.65-.19.96-.32.58-.27.85-.42.51-.3.73-.45c.28-.19.55-.35.8-.47s.48-.19.67-.19.32.05.38.15.08.2.08.31c0,.06,0,.12,0,.18s0,.11-.02.15c-.04.2-.12.41-.23.61s-.27.38-.45.53c-.81.64-1.65,1.1-2.5,1.37s-1.77.41-2.74.41c-.19,0-.41-.01-.66-.04s-.52-.07-.79-.14-.54-.17-.81-.3-.5-.31-.71-.53-.38-.49-.5-.81-.19-.71-.19-1.16c0-.37.05-.78.15-1.23-.1-.02-.2-.07-.29-.16s-.13-.22-.13-.39ZM467.73,10.41s.02-.07.02-.11v-.11c0-.21-.08-.37-.23-.47s-.34-.16-.56-.16c-.34,0-.68.09-1.01.27s-.64.4-.94.67-.55.56-.78.87-.4.59-.53.84c.56-.05,1.08-.12,1.55-.23s.88-.24,1.22-.4.63-.34.84-.54.35-.41.42-.64Z"/>
      <path class="cls-1" d="M472.25,13.65c0-.34.09-.62.27-.86s.42-.39.71-.47c.09-.17.22-.4.4-.7s.4-.61.67-.96.57-.69.91-1.04.71-.66,1.12-.95.85-.52,1.32-.7.97-.27,1.51-.27c.45,0,.85.05,1.18.16s.61.26.83.46.38.43.49.7.16.56.16.87c0,.27-.04.52-.11.76-.11.44-.31.82-.61,1.15s-.65.62-1.05.86-.84.45-1.31.62-.95.3-1.42.41-.93.19-1.37.25-.82.1-1.14.13c-.07.14-.13.32-.18.53s-.08.42-.08.63c0,.45.18.8.54,1.05s.86.38,1.49.38c.37,0,.72-.04,1.05-.12s.65-.19.96-.32.58-.27.85-.42.51-.3.73-.45c.28-.19.55-.35.8-.47s.48-.19.67-.19.32.05.38.15.08.2.08.31c0,.06,0,.12,0,.18s0,.11-.02.15c-.04.2-.12.41-.23.61s-.27.38-.45.53c-.81.64-1.65,1.1-2.5,1.37s-1.77.41-2.74.41c-.19,0-.41-.01-.66-.04s-.52-.07-.79-.14-.54-.17-.81-.3-.5-.31-.71-.53-.38-.49-.5-.81-.19-.71-.19-1.16c0-.37.05-.78.15-1.23-.1-.02-.2-.07-.29-.16s-.13-.22-.13-.39ZM479.59,10.41s.02-.07.02-.11v-.11c0-.21-.08-.37-.23-.47s-.34-.16-.56-.16c-.34,0-.68.09-1.01.27s-.64.4-.94.67-.55.56-.78.87-.4.59-.53.84c.56-.05,1.08-.12,1.55-.23s.88-.24,1.22-.4.63-.34.84-.54.35-.41.42-.64Z"/>
      <path class="cls-1" d="M484.11,13.65c0-.34.09-.62.27-.86s.42-.39.71-.47c.09-.17.22-.4.4-.7s.4-.61.67-.96.57-.69.91-1.04.71-.66,1.12-.95.85-.52,1.32-.7.97-.27,1.51-.27c.45,0,.85.05,1.18.16s.61.26.83.46.38.43.49.7.16.56.16.87c0,.27-.04.52-.11.76-.11.44-.31.82-.61,1.15s-.65.62-1.05.86-.84.45-1.31.62-.95.3-1.42.41-.93.19-1.37.25-.82.1-1.14.13c-.07.14-.13.32-.18.53s-.08.42-.08.63c0,.45.18.8.54,1.05s.86.38,1.49.38c.37,0,.72-.04,1.05-.12s.65-.19.96-.32.58-.27.85-.42.51-.3.73-.45c.28-.19.55-.35.8-.47s.48-.19.67-.19.32.05.38.15.08.2.08.31c0,.06,0,.12,0,.18s0,.11-.02.15c-.04.2-.12.41-.23.61s-.27.38-.45.53c-.81.64-1.65,1.1-2.5,1.37s-1.77.41-2.74.41c-.19,0-.41-.01-.66-.04s-.52-.07-.79-.14-.54-.17-.81-.3-.5-.31-.71-.53-.38-.49-.5-.81-.19-.71-.19-1.16c0-.37.05-.78.15-1.23-.1-.02-.2-.07-.29-.16s-.13-.22-.13-.39ZM491.45,10.41s.02-.07.02-.11v-.11c0-.21-.08-.37-.23-.47s-.34-.16-.56-.16c-.34,0-.68.09-1.01.27s-.64.4-.94.67-.55.56-.78.87-.4.59-.53.84c.56-.05,1.08-.12,1.55-.23s.88-.24,1.22-.4.63-.34.84-.54.35-.41.42-.64Z"/>
      <path class="cls-1" d="M495.97,13.65c0-.34.09-.62.27-.86s.42-.39.71-.47c.09-.17.22-.4.4-.7s.4-.61.67-.96.57-.69.91-1.04.71-.66,1.12-.95.85-.52,1.32-.7.97-.27,1.51-.27c.45,0,.85.05,1.18.16s.61.26.83.46.38.43.49.7.16.56.16.87c0,.27-.04.52-.11.76-.11.44-.31.82-.61,1.15s-.65.62-1.05.86-.84.45-1.31.62-.95.3-1.42.41-.93.19-1.37.25-.82.1-1.14.13c-.07.14-.13.32-.18.53s-.08.42-.08.63c0,.45.18.8.54,1.05s.86.38,1.49.38c.37,0,.72-.04,1.05-.12s.65-.19.96-.32.58-.27.85-.42.51-.3.73-.45c.28-.19.55-.35.8-.47s.48-.19.67-.19.32.05.38.15.08.2.08.31c0,.06,0,.12,0,.18s0,.11-.02.15c-.04.2-.12.41-.23.61s-.27.38-.45.53c-.81.64-1.65,1.1-2.5,1.37s-1.77.41-2.74.41c-.19,0-.41-.01-.66-.04s-.52-.07-.79-.14-.54-.17-.81-.3-.5-.31-.71-.53-.38-.49-.5-.81-.19-.71-.19-1.16c0-.37.05-.78.15-1.23-.1-.02-.2-.07-.29-.16s-.13-.22-.13-.39ZM503.31,10.41s.02-.07.02-.11v-.11c0-.21-.08-.37-.23-.47s-.34-.16-.56-.16c-.34,0-.68.09-1.01.27s-.64.4-.94.67-.55.56-.78.87-.4.59-.53.84c.56-.05,1.08-.12,1.55-.23s.88-.24,1.22-.4.63-.34.84-.54.35-.41.42-.64Z"/>
      <path class="cls-1" d="M507.83,13.65c0-.34.09-.62.27-.86s.42-.39.71-.47c.09-.17.22-.4.4-.7s.4-.61.67-.96.57-.69.91-1.04.71-.66,1.12-.95.85-.52,1.32-.7.97-.27,1.51-.27c.45,0,.85.05,1.18.16s.61.26.83.46.38.43.49.7.16.56.16.87c0,.27-.04.52-.11.76-.11.44-.31.82-.61,1.15s-.65.62-1.05.86-.84.45-1.31.62-.95.3-1.42.41-.93.19-1.37.25-.82.1-1.14.13c-.07.14-.13.32-.18.53s-.08.42-.08.63c0,.45.18.8.54,1.05s.86.38,1.49.38c.37,0,.72-.04,1.05-.12s.65-.19.96-.32.58-.27.85-.42.51-.3.73-.45c.28-.19.55-.35.8-.47s.48-.19.67-.19.32.05.38.15.08.2.08.31c0,.06,0,.12,0,.18s0,.11-.02.15c-.04.2-.12.41-.23.61s-.27.38-.45.53c-.81.64-1.65,1.1-2.5,1.37s-1.77.41-2.74.41c-.19,0-.41-.01-.66-.04s-.52-.07-.79-.14-.54-.17-.81-.3-.5-.31-.71-.53-.38-.49-.5-.81-.19-.71-.19-1.16c0-.37.05-.78.15-1.23-.1-.02-.2-.07-.29-.16s-.13-.22-.13-.39ZM515.17,10.41s.02-.07.02-.11v-.11c0-.21-.08-.37-.23-.47s-.34-.16-.56-.16c-.34,0-.68.09-1.01.27s-.64.4-.94.67-.55.56-.78.87-.4.59-.53.84c.56-.05,1.08-.12,1.55-.23s.88-.24,1.22-.4.63-.34.84-.54.35-.41.42-.64Z"/>
      <path class="cls-1" d="M519.69,13.65c0-.34.09-.62.27-.86s.42-.39.71-.47c.09-.17.22-.4.4-.7s.4-.61.67-.96.57-.69.91-1.04.71-.66,1.12-.95.85-.52,1.32-.7.97-.27,1.51-.27c.45,0,.85.05,1.18.16s.61.26.83.46.38.43.49.7.16.56.16.87c0,.27-.04.52-.11.76-.11.44-.31.82-.61,1.15s-.65.62-1.05.86-.84.45-1.31.62-.95.3-1.42.41-.93.19-1.37.25-.82.1-1.14.13c-.07.14-.13.32-.18.53s-.08.42-.08.63c0,.45.18.8.54,1.05s.86.38,1.49.38c.37,0,.72-.04,1.05-.12s.65-.19.96-.32.58-.27.85-.42.51-.3.73-.45c.28-.19.55-.35.8-.47s.48-.19.67-.19.32.05.38.15.08.2.08.31c0,.06,0,.12,0,.18s0,.11-.02.15c-.04.2-.12.41-.23.61s-.27.38-.45.53c-.81.64-1.65,1.1-2.5,1.37s-1.77.41-2.74.41c-.19,0-.41-.01-.66-.04s-.52-.07-.79-.14-.54-.17-.81-.3-.5-.31-.71-.53-.38-.49-.5-.81-.19-.71-.19-1.16c0-.37.05-.78.15-1.23-.1-.02-.2-.07-.29-.16s-.13-.22-.13-.39ZM527.03,10.41s.02-.07.02-.11v-.11c0-.21-.08-.37-.23-.47s-.34-.16-.56-.16c-.34,0-.68.09-1.01.27s-.64.4-.94.67-.55.56-.78.87-.4.59-.53.84c.56-.05,1.08-.12,1.55-.23s.88-.24,1.22-.4.63-.34.84-.54.35-.41.42-.64Z"/>
      <path class="cls-1" d="M531.55,13.65c0-.34.09-.62.27-.86s.42-.39.71-.47c.09-.17.22-.4.4-.7s.4-.61.67-.96.57-.69.91-1.04.71-.66,1.12-.95.85-.52,1.32-.7.97-.27,1.51-.27c.45,0,.85.05,1.18.16s.61.26.83.46.38.43.49.7.16.56.16.87c0,.27-.04.52-.11.76-.11.44-.31.82-.61,1.15s-.65.62-1.05.86-.84.45-1.31.62-.95.3-1.42.41-.93.19-1.37.25-.82.1-1.14.13c-.07.14-.13.32-.18.53s-.08.42-.08.63c0,.45.18.8.54,1.05s.86.38,1.49.38c.37,0,.72-.04,1.05-.12s.65-.19.96-.32.58-.27.85-.42.51-.3.73-.45c.28-.19.55-.35.8-.47s.48-.19.67-.19.32.05.38.15.08.2.08.31c0,.06,0,.12,0,.18s0,.11-.02.15c-.04.2-.12.41-.23.61s-.27.38-.45.53c-.81.64-1.65,1.1-2.5,1.37s-1.77.41-2.74.41c-.19,0-.41-.01-.66-.04s-.52-.07-.79-.14-.54-.17-.81-.3-.5-.31-.71-.53-.38-.49-.5-.81-.19-.71-.19-1.16c0-.37.05-.78.15-1.23-.1-.02-.2-.07-.29-.16s-.13-.22-.13-.39ZM538.89,10.41s.02-.07.02-.11v-.11c0-.21-.08-.37-.23-.47s-.34-.16-.56-.16c-.34,0-.68.09-1.01.27s-.64.4-.94.67-.55.56-.78.87-.4.59-.53.84c.56-.05,1.08-.12,1.55-.23s.88-.24,1.22-.4.63-.34.84-.54.35-.41.42-.64Z"/>
      <path class="cls-1" d="M543.41,13.65c0-.34.09-.62.27-.86s.42-.39.71-.47c.09-.17.22-.4.4-.7s.4-.61.67-.96.57-.69.91-1.04.71-.66,1.12-.95.85-.52,1.32-.7.97-.27,1.51-.27c.45,0,.85.05,1.18.16s.61.26.83.46.38.43.49.7.16.56.16.87c0,.27-.04.52-.11.76-.11.44-.31.82-.61,1.15s-.65.62-1.05.86-.84.45-1.31.62-.95.3-1.42.41-.93.19-1.37.25-.82.1-1.14.13c-.07.14-.13.32-.18.53s-.08.42-.08.63c0,.45.18.8.54,1.05s.86.38,1.49.38c.37,0,.72-.04,1.05-.12s.65-.19.96-.32.58-.27.85-.42.51-.3.73-.45c.28-.19.55-.35.8-.47s.48-.19.67-.19.32.05.38.15.08.2.08.31c0,.06,0,.12,0,.18s0,.11-.02.15c-.04.2-.12.41-.23.61s-.27.38-.45.53c-.81.64-1.65,1.1-2.5,1.37s-1.77.41-2.74.41c-.19,0-.41-.01-.66-.04s-.52-.07-.79-.14-.54-.17-.81-.3-.5-.31-.71-.53-.38-.49-.5-.81-.19-.71-.19-1.16c0-.37.05-.78.15-1.23-.1-.02-.2-.07-.29-.16s-.13-.22-.13-.39ZM550.75,10.41s.02-.07.02-.11v-.11c0-.21-.08-.37-.23-.47s-.34-.16-.56-.16c-.34,0-.68.09-1.01.27s-.64.4-.94.67-.55.56-.78.87-.4.59-.53.84c.56-.05,1.08-.12,1.55-.23s.88-.24,1.22-.4.63-.34.84-.54.35-.41.42-.64Z"/>
      <path class="cls-1" d="M555.27,13.65c0-.34.09-.62.27-.86s.42-.39.71-.47c.09-.17.22-.4.4-.7s.4-.61.67-.96.57-.69.91-1.04.71-.66,1.12-.95.85-.52,1.32-.7.97-.27,1.51-.27c.45,0,.85.05,1.18.16s.61.26.83.46.38.43.49.7.16.56.16.87c0,.27-.04.52-.11.76-.11.44-.31.82-.61,1.15s-.65.62-1.05.86-.84.45-1.31.62-.95.3-1.42.41-.93.19-1.37.25-.82.1-1.14.13c-.07.14-.13.32-.18.53s-.08.42-.08.63c0,.45.18.8.54,1.05s.86.38,1.49.38c.37,0,.72-.04,1.05-.12s.65-.19.96-.32.58-.27.85-.42.51-.3.73-.45c.28-.19.55-.35.8-.47s.48-.19.67-.19.32.05.38.15.08.2.08.31c0,.06,0,.12,0,.18s0,.11-.02.15c-.04.2-.12.41-.23.61s-.27.38-.45.53c-.81.64-1.65,1.1-2.5,1.37s-1.77.41-2.74.41c-.19,0-.41-.01-.66-.04s-.52-.07-.79-.14-.54-.17-.81-.3-.5-.31-.71-.53-.38-.49-.5-.81-.19-.71-.19-1.16c0-.37.05-.78.15-1.23-.1-.02-.2-.07-.29-.16s-.13-.22-.13-.39ZM562.61,10.41s.02-.07.02-.11v-.11c0-.21-.08-.37-.23-.47s-.34-.16-.56-.16c-.34,0-.68.09-1.01.27s-.64.4-.94.67-.55.56-.78.87-.4.59-.53.84c.56-.05,1.08-.12,1.55-.23s.88-.24,1.22-.4.63-.34.84-.54.35-.41.42-.64Z"/>
      <path class="cls-1" d="M567.13,13.65c0-.34.09-.62.27-.86s.42-.39.71-.47c.09-.17.22-.4.4-.7s.4-.61.67-.96.57-.69.91-1.04.71-.66,1.12-.95.85-.52,1.32-.7.97-.27,1.51-.27c.45,0,.85.05,1.18.16s.61.26.83.46.38.43.49.7.16.56.16.87c0,.27-.04.52-.11.76-.11.44-.31.82-.61,1.15s-.65.62-1.05.86-.84.45-1.31.62-.95.3-1.42.41-.93.19-1.37.25-.82.1-1.14.13c-.07.14-.13.32-.18.53s-.08.42-.08.63c0,.45.18.8.54,1.05s.86.38,1.49.38c.37,0,.72-.04,1.05-.12s.65-.19.96-.32.58-.27.85-.42.51-.3.73-.45c.28-.19.55-.35.8-.47s.48-.19.67-.19.32.05.38.15.08.2.08.31c0,.06,0,.12,0,.18s0,.11-.02.15c-.04.2-.12.41-.23.61s-.27.38-.45.53c-.81.64-1.65,1.1-2.5,1.37s-1.77.41-2.74.41c-.19,0-.41-.01-.66-.04s-.52-.07-.79-.14-.54-.17-.81-.3-.5-.31-.71-.53-.38-.49-.5-.81-.19-.71-.19-1.16c0-.37.05-.78.15-1.23-.1-.02-.2-.07-.29-.16s-.13-.22-.13-.39ZM574.46,10.41s.02-.07.02-.11v-.11c0-.21-.08-.37-.23-.47s-.34-.16-.56-.16c-.34,0-.68.09-1.01.27s-.64.4-.94.67-.55.56-.78.87-.4.59-.53.84c.56-.05,1.08-.12,1.55-.23s.88-.24,1.22-.4.63-.34.84-.54.35-.41.42-.64Z"/>
      <path class="cls-1" d="M578.99,13.65c0-.34.09-.62.27-.86s.42-.39.71-.47c.09-.17.22-.4.4-.7s.4-.61.67-.96.57-.69.91-1.04.71-.66,1.12-.95.85-.52,1.32-.7.97-.27,1.51-.27c.45,0,.85.05,1.18.16s.61.26.83.46.38.43.49.7.16.56.16.87c0,.27-.04.52-.11.76-.11.44-.31.82-.61,1.15s-.65.62-1.05.86-.84.45-1.31.62-.95.3-1.42.41-.93.19-1.37.25-.82.1-1.14.13c-.07.14-.13.32-.18.53s-.08.42-.08.63c0,.45.18.8.54,1.05s.86.38,1.49.38c.37,0,.72-.04,1.05-.12s.65-.19.96-.32.58-.27.85-.42.51-.3.73-.45c.28-.19.55-.35.8-.47s.48-.19.67-.19.32.05.38.15.08.2.08.31c0,.06,0,.12,0,.18s0,.11-.02.15c-.04.2-.12.41-.23.61s-.27.38-.45.53c-.81.64-1.65,1.1-2.5,1.37s-1.77.41-2.74.41c-.19,0-.41-.01-.66-.04s-.52-.07-.79-.14-.54-.17-.81-.3-.5-.31-.71-.53-.38-.49-.5-.81-.19-.71-.19-1.16c0-.37.05-.78.15-1.23-.1-.02-.2-.07-.29-.16s-.13-.22-.13-.39ZM586.32,10.41s.02-.07.02-.11v-.11c0-.21-.08-.37-.23-.47s-.34-.16-.56-.16c-.34,0-.68.09-1.01.27s-.64.4-.94.67-.55.56-.78.87-.4.59-.53.84c.56-.05,1.08-.12,1.55-.23s.88-.24,1.22-.4.63-.34.84-.54.35-.41.42-.64Z"/>
      <path class="cls-1" d="M590.85,13.65c0-.34.09-.62.27-.86s.42-.39.71-.47c.09-.17.22-.4.4-.7s.4-.61.67-.96.57-.69.91-1.04.71-.66,1.12-.95.85-.52,1.32-.7.97-.27,1.51-.27c.45,0,.85.05,1.18.16s.61.26.83.46.38.43.49.7.16.56.16.87c0,.27-.04.52-.11.76-.11.44-.31.82-.61,1.15s-.65.62-1.05.86-.84.45-1.31.62-.95.3-1.42.41-.93.19-1.37.25-.82.1-1.14.13c-.07.14-.13.32-.18.53s-.08.42-.08.63c0,.45.18.8.54,1.05s.86.38,1.49.38c.37,0,.72-.04,1.05-.12s.65-.19.96-.32.58-.27.85-.42.51-.3.73-.45c.28-.19.55-.35.8-.47s.48-.19.67-.19.32.05.38.15.08.2.08.31c0,.06,0,.12,0,.18s0,.11-.02.15c-.04.2-.12.41-.23.61s-.27.38-.45.53c-.81.64-1.65,1.1-2.5,1.37s-1.77.41-2.74.41c-.19,0-.41-.01-.66-.04s-.52-.07-.79-.14-.54-.17-.81-.3-.5-.31-.71-.53-.38-.49-.5-.81-.19-.71-.19-1.16c0-.37.05-.78.15-1.23-.1-.02-.2-.07-.29-.16s-.13-.22-.13-.39ZM598.18,10.41s.02-.07.02-.11v-.11c0-.21-.08-.37-.23-.47s-.34-.16-.56-.16c-.34,0-.68.09-1.01.27s-.64.4-.94.67-.55.56-.78.87-.4.59-.53.84c.56-.05,1.08-.12,1.55-.23s.88-.24,1.22-.4.63-.34.84-.54.35-.41.42-.64Z"/>
      <path class="cls-1" d="M602.71,13.65c0-.34.09-.62.27-.86s.42-.39.71-.47c.09-.17.22-.4.4-.7s.4-.61.67-.96.57-.69.91-1.04.71-.66,1.12-.95.85-.52,1.32-.7.97-.27,1.51-.27c.45,0,.85.05,1.18.16s.61.26.83.46.38.43.49.7.16.56.16.87c0,.27-.04.52-.11.76-.11.44-.31.82-.61,1.15s-.65.62-1.05.86-.84.45-1.31.62-.95.3-1.42.41-.93.19-1.37.25-.82.1-1.14.13c-.07.14-.13.32-.18.53s-.08.42-.08.63c0,.45.18.8.54,1.05s.86.38,1.49.38c.37,0,.72-.04,1.05-.12s.65-.19.96-.32.58-.27.85-.42.51-.3.73-.45c.28-.19.55-.35.8-.47s.48-.19.67-.19.32.05.38.15.08.2.08.31c0,.06,0,.12,0,.18s0,.11-.02.15c-.04.2-.12.41-.23.61s-.27.38-.45.53c-.81.64-1.65,1.1-2.5,1.37s-1.77.41-2.74.41c-.19,0-.41-.01-.66-.04s-.52-.07-.79-.14-.54-.17-.81-.3-.5-.31-.71-.53-.38-.49-.5-.81-.19-.71-.19-1.16c0-.37.05-.78.15-1.23-.1-.02-.2-.07-.29-.16s-.13-.22-.13-.39ZM610.04,10.41s.02-.07.02-.11v-.11c0-.21-.08-.37-.23-.47s-.34-.16-.56-.16c-.34,0-.68.09-1.01.27s-.64.4-.94.67-.55.56-.78.87-.4.59-.53.84c.56-.05,1.08-.12,1.55-.23s.88-.24,1.22-.4.63-.34.84-.54.35-.41.42-.64Z"/>
      <path class="cls-1" d="M614.57,13.65c0-.34.09-.62.27-.86s.42-.39.71-.47c.09-.17.22-.4.4-.7s.4-.61.67-.96.57-.69.91-1.04.71-.66,1.12-.95.85-.52,1.32-.7.97-.27,1.51-.27c.45,0,.85.05,1.18.16s.61.26.83.46.38.43.49.7.16.56.16.87c0,.27-.04.52-.11.76-.11.44-.31.82-.61,1.15s-.65.62-1.05.86-.84.45-1.31.62-.95.3-1.42.41-.93.19-1.37.25-.82.1-1.14.13c-.07.14-.13.32-.18.53s-.08.42-.08.63c0,.45.18.8.54,1.05s.86.38,1.49.38c.37,0,.72-.04,1.05-.12s.65-.19.96-.32.58-.27.85-.42.51-.3.73-.45c.28-.19.55-.35.8-.47s.48-.19.67-.19.32.05.38.15.08.2.08.31c0,.06,0,.12,0,.18s0,.11-.02.15c-.04.2-.12.41-.23.61s-.27.38-.45.53c-.81.64-1.65,1.1-2.5,1.37s-1.77.41-2.74.41c-.19,0-.41-.01-.66-.04s-.52-.07-.79-.14-.54-.17-.81-.3-.5-.31-.71-.53-.38-.49-.5-.81-.19-.71-.19-1.16c0-.37.05-.78.15-1.23-.1-.02-.2-.07-.29-.16s-.13-.22-.13-.39ZM621.9,10.41s.02-.07.02-.11v-.11c0-.21-.08-.37-.23-.47s-.34-.16-.56-.16c-.34,0-.68.09-1.01.27s-.64.4-.94.67-.55.56-.78.87-.4.59-.53.84c.56-.05,1.08-.12,1.55-.23s.88-.24,1.22-.4.63-.34.84-.54.35-.41.42-.64Z"/>
      <path class="cls-1" d="M626.43,13.65c0-.34.09-.62.27-.86s.42-.39.71-.47c.09-.17.22-.4.4-.7s.4-.61.67-.96.57-.69.91-1.04.71-.66,1.12-.95.85-.52,1.32-.7.97-.27,1.51-.27c.45,0,.85.05,1.18.16s.61.26.83.46.38.43.49.7.16.56.16.87c0,.27-.04.52-.11.76-.11.44-.31.82-.61,1.15s-.65.62-1.05.86-.84.45-1.31.62-.95.3-1.42.41-.93.19-1.37.25-.82.1-1.14.13c-.07.14-.13.32-.18.53s-.08.42-.08.63c0,.45.18.8.54,1.05s.86.38,1.49.38c.37,0,.72-.04,1.05-.12s.65-.19.96-.32.58-.27.85-.42.51-.3.73-.45c.28-.19.55-.35.8-.47s.48-.19.67-.19.32.05.38.15.08.2.08.31c0,.06,0,.12,0,.18s0,.11-.02.15c-.04.2-.12.41-.23.61s-.27.38-.45.53c-.81.64-1.65,1.1-2.5,1.37s-1.77.41-2.74.41c-.19,0-.41-.01-.66-.04s-.52-.07-.79-.14-.54-.17-.81-.3-.5-.31-.71-.53-.38-.49-.5-.81-.19-.71-.19-1.16c0-.37.05-.78.15-1.23-.1-.02-.2-.07-.29-.16s-.13-.22-.13-.39ZM633.76,10.41s.02-.07.02-.11v-.11c0-.21-.08-.37-.23-.47s-.34-.16-.56-.16c-.34,0-.68.09-1.01.27s-.64.4-.94.67-.55.56-.78.87-.4.59-.53.84c.56-.05,1.08-.12,1.55-.23s.88-.24,1.22-.4.63-.34.84-.54.35-.41.42-.64Z"/>
      <path class="cls-1" d="M638.29,13.65c0-.34.09-.62.27-.86s.42-.39.71-.47c.09-.17.22-.4.4-.7s.4-.61.67-.96.57-.69.91-1.04.71-.66,1.12-.95.85-.52,1.32-.7.97-.27,1.51-.27c.45,0,.85.05,1.18.16s.61.26.83.46.38.43.49.7.16.56.16.87c0,.27-.04.52-.11.76-.11.44-.31.82-.61,1.15s-.65.62-1.05.86-.84.45-1.31.62-.95.3-1.42.41-.93.19-1.37.25-.82.1-1.14.13c-.07.14-.13.32-.18.53s-.08.42-.08.63c0,.45.18.8.54,1.05s.86.38,1.49.38c.37,0,.72-.04,1.05-.12s.65-.19.96-.32.58-.27.85-.42.51-.3.73-.45c.28-.19.55-.35.8-.47s.48-.19.67-.19.32.05.38.15.08.2.08.31c0,.06,0,.12,0,.18s0,.11-.02.15c-.04.2-.12.41-.23.61s-.27.38-.45.53c-.81.64-1.65,1.1-2.5,1.37s-1.77.41-2.74.41c-.19,0-.41-.01-.66-.04s-.52-.07-.79-.14-.54-.17-.81-.3-.5-.31-.71-.53-.38-.49-.5-.81-.19-.71-.19-1.16c0-.37.05-.78.15-1.23-.1-.02-.2-.07-.29-.16s-.13-.22-.13-.39ZM645.62,10.41s.02-.07.02-.11v-.11c0-.21-.08-.37-.23-.47s-.34-.16-.56-.16c-.34,0-.68.09-1.01.27s-.64.4-.94.67-.55.56-.78.87-.4.59-.53.84c.56-.05,1.08-.12,1.55-.23s.88-.24,1.22-.4.63-.34.84-.54.35-.41.42-.64Z"/>
      <path class="cls-1" d="M650.14,13.65c0-.34.09-.62.27-.86s.42-.39.71-.47c.09-.17.22-.4.4-.7s.4-.61.67-.96.57-.69.91-1.04.71-.66,1.12-.95.85-.52,1.32-.7.97-.27,1.51-.27c.45,0,.85.05,1.18.16s.61.26.83.46.38.43.49.7.16.56.16.87c0,.27-.04.52-.11.76-.11.44-.31.82-.61,1.15s-.65.62-1.05.86-.84.45-1.31.62-.95.3-1.42.41-.93.19-1.37.25-.82.1-1.14.13c-.07.14-.13.32-.18.53s-.08.42-.08.63c0,.45.18.8.54,1.05s.86.38,1.49.38c.37,0,.72-.04,1.05-.12s.65-.19.96-.32.58-.27.85-.42.51-.3.73-.45c.28-.19.55-.35.8-.47s.48-.19.67-.19.32.05.38.15.08.2.08.31c0,.06,0,.12,0,.18s0,.11-.02.15c-.04.2-.12.41-.23.61s-.27.38-.45.53c-.81.64-1.65,1.1-2.5,1.37s-1.77.41-2.74.41c-.19,0-.41-.01-.66-.04s-.52-.07-.79-.14-.54-.17-.81-.3-.5-.31-.71-.53-.38-.49-.5-.81-.19-.71-.19-1.16c0-.37.05-.78.15-1.23-.1-.02-.2-.07-.29-.16s-.13-.22-.13-.39ZM657.48,10.41s.02-.07.02-.11v-.11c0-.21-.08-.37-.23-.47s-.34-.16-.56-.16c-.34,0-.68.09-1.01.27s-.64.4-.94.67-.55.56-.78.87-.4.59-.53.84c.56-.05,1.08-.12,1.55-.23s.88-.24,1.22-.4.63-.34.84-.54.35-.41.42-.64Z"/>
      <path class="cls-1" d="M662,13.65c0-.34.09-.62.27-.86s.42-.39.71-.47c.09-.17.22-.4.4-.7s.4-.61.67-.96.57-.69.91-1.04.71-.66,1.12-.95.85-.52,1.32-.7.97-.27,1.51-.27c.45,0,.85.05,1.18.16s.61.26.83.46.38.43.49.7.16.56.16.87c0,.27-.04.52-.11.76-.11.44-.31.82-.61,1.15s-.65.62-1.05.86-.84.45-1.31.62-.95.3-1.42.41-.93.19-1.37.25-.82.1-1.14.13c-.07.14-.13.32-.18.53s-.08.42-.08.63c0,.45.18.8.54,1.05s.86.38,1.49.38c.37,0,.72-.04,1.05-.12s.65-.19.96-.32.58-.27.85-.42.51-.3.73-.45c.28-.19.55-.35.8-.47s.48-.19.67-.19.32.05.38.15.08.2.08.31c0,.06,0,.12,0,.18s0,.11-.02.15c-.04.2-.12.41-.23.61s-.27.38-.45.53c-.81.64-1.65,1.1-2.5,1.37s-1.77.41-2.74.41c-.19,0-.41-.01-.66-.04s-.52-.07-.79-.14-.54-.17-.81-.3-.5-.31-.71-.53-.38-.49-.5-.81-.19-.71-.19-1.16c0-.37.05-.78.15-1.23-.1-.02-.2-.07-.29-.16s-.13-.22-.13-.39ZM669.34,10.41s.02-.07.02-.11v-.11c0-.21-.08-.37-.23-.47s-.34-.16-.56-.16c-.34,0-.68.09-1.01.27s-.64.4-.94.67-.55.56-.78.87-.4.59-.53.84c.56-.05,1.08-.12,1.55-.23s.88-.24,1.22-.4.63-.34.84-.54.35-.41.42-.64Z"/>
      <path class="cls-1" d="M673.86,13.65c0-.34.09-.62.27-.86s.42-.39.71-.47c.09-.17.22-.4.4-.7s.4-.61.67-.96.57-.69.91-1.04.71-.66,1.12-.95.85-.52,1.32-.7.97-.27,1.51-.27c.45,0,.85.05,1.18.16s.61.26.83.46.38.43.49.7.16.56.16.87c0,.27-.04.52-.11.76-.11.44-.31.82-.61,1.15s-.65.62-1.05.86-.84.45-1.31.62-.95.3-1.42.41-.93.19-1.37.25-.82.1-1.14.13c-.07.14-.13.32-.18.53s-.08.42-.08.63c0,.45.18.8.54,1.05s.86.38,1.49.38c.37,0,.72-.04,1.05-.12s.65-.19.96-.32.58-.27.85-.42.51-.3.73-.45c.28-.19.55-.35.8-.47s.48-.19.67-.19.32.05.38.15.08.2.08.31c0,.06,0,.12,0,.18s0,.11-.02.15c-.04.2-.12.41-.23.61s-.27.38-.45.53c-.81.64-1.65,1.1-2.5,1.37s-1.77.41-2.74.41c-.19,0-.41-.01-.66-.04s-.52-.07-.79-.14-.54-.17-.81-.3-.5-.31-.71-.53-.38-.49-.5-.81-.19-.71-.19-1.16c0-.37.05-.78.15-1.23-.1-.02-.2-.07-.29-.16s-.13-.22-.13-.39ZM681.2,10.41s.02-.07.02-.11v-.11c0-.21-.08-.37-.23-.47s-.34-.16-.56-.16c-.34,0-.68.09-1.01.27s-.64.4-.94.67-.55.56-.78.87-.4.59-.53.84c.56-.05,1.08-.12,1.55-.23s.88-.24,1.22-.4.63-.34.84-.54.35-.41.42-.64Z"/>
      <path class="cls-1" d="M685.72,13.65c0-.34.09-.62.27-.86s.42-.39.71-.47c.09-.17.22-.4.4-.7s.4-.61.67-.96.57-.69.91-1.04.71-.66,1.12-.95.85-.52,1.32-.7.97-.27,1.51-.27c.45,0,.85.05,1.18.16s.61.26.83.46.38.43.49.7.16.56.16.87c0,.27-.04.52-.11.76-.11.44-.31.82-.61,1.15s-.65.62-1.05.86-.84.45-1.31.62-.95.3-1.42.41-.93.19-1.37.25-.82.1-1.14.13c-.07.14-.13.32-.18.53s-.08.42-.08.63c0,.45.18.8.54,1.05s.86.38,1.49.38c.37,0,.72-.04,1.05-.12s.65-.19.96-.32.58-.27.85-.42.51-.3.73-.45c.28-.19.55-.35.8-.47s.48-.19.67-.19.32.05.38.15.08.2.08.31c0,.06,0,.12,0,.18s0,.11-.02.15c-.04.2-.12.41-.23.61s-.27.38-.45.53c-.81.64-1.65,1.1-2.5,1.37s-1.77.41-2.74.41c-.19,0-.41-.01-.66-.04s-.52-.07-.79-.14-.54-.17-.81-.3-.5-.31-.71-.53-.38-.49-.5-.81-.19-.71-.19-1.16c0-.37.05-.78.15-1.23-.1-.02-.2-.07-.29-.16s-.13-.22-.13-.39ZM693.06,10.41s.02-.07.02-.11v-.11c0-.21-.08-.37-.23-.47s-.34-.16-.56-.16c-.34,0-.68.09-1.01.27s-.64.4-.94.67-.55.56-.78.87-.4.59-.53.84c.56-.05,1.08-.12,1.55-.23s.88-.24,1.22-.4.63-.34.84-.54.35-.41.42-.64Z"/>
      <path class="cls-1" d="M697.58,13.65c0-.34.09-.62.27-.86s.42-.39.71-.47c.09-.17.22-.4.4-.7s.4-.61.67-.96.57-.69.91-1.04.71-.66,1.12-.95.85-.52,1.32-.7.97-.27,1.51-.27c.45,0,.85.05,1.18.16s.61.26.83.46.38.43.49.7.16.56.16.87c0,.27-.04.52-.11.76-.11.44-.31.82-.61,1.15s-.65.62-1.05.86-.84.45-1.31.62-.95.3-1.42.41-.93.19-1.37.25-.82.1-1.14.13c-.07.14-.13.32-.18.53s-.08.42-.08.63c0,.45.18.8.54,1.05s.86.38,1.49.38c.37,0,.72-.04,1.05-.12s.65-.19.96-.32.58-.27.85-.42.51-.3.73-.45c.28-.19.55-.35.8-.47s.48-.19.67-.19.32.05.38.15.08.2.08.31c0,.06,0,.12,0,.18s0,.11-.02.15c-.04.2-.12.41-.23.61s-.27.38-.45.53c-.81.64-1.65,1.1-2.5,1.37s-1.77.41-2.74.41c-.19,0-.41-.01-.66-.04s-.52-.07-.79-.14-.54-.17-.81-.3-.5-.31-.71-.53-.38-.49-.5-.81-.19-.71-.19-1.16c0-.37.05-.78.15-1.23-.1-.02-.2-.07-.29-.16s-.13-.22-.13-.39ZM704.92,10.41s.02-.07.02-.11v-.11c0-.21-.08-.37-.23-.47s-.34-.16-.56-.16c-.34,0-.68.09-1.01.27s-.64.4-.94.67-.55.56-.78.87-.4.59-.53.84c.56-.05,1.08-.12,1.55-.23s.88-.24,1.22-.4.63-.34.84-.54.35-.41.42-.64Z"/>
      <path class="cls-1" d="M709.44,13.65c0-.34.09-.62.27-.86s.42-.39.71-.47c.09-.17.22-.4.4-.7s.4-.61.67-.96.57-.69.91-1.04.71-.66,1.12-.95.85-.52,1.32-.7.97-.27,1.51-.27c.45,0,.85.05,1.18.16s.61.26.83.46.38.43.49.7.16.56.16.87c0,.27-.04.52-.11.76-.11.44-.31.82-.61,1.15s-.65.62-1.05.86-.84.45-1.31.62-.95.3-1.42.41-.93.19-1.37.25-.82.1-1.14.13c-.07.14-.13.32-.18.53s-.08.42-.08.63c0,.45.18.8.54,1.05s.86.38,1.49.38c.37,0,.72-.04,1.05-.12s.65-.19.96-.32.58-.27.85-.42.51-.3.73-.45c.28-.19.55-.35.8-.47s.48-.19.67-.19.32.05.38.15.08.2.08.31c0,.06,0,.12,0,.18s0,.11-.02.15c-.04.2-.12.41-.23.61s-.27.38-.45.53c-.81.64-1.65,1.1-2.5,1.37s-1.77.41-2.74.41c-.19,0-.41-.01-.66-.04s-.52-.07-.79-.14-.54-.17-.81-.3-.5-.31-.71-.53-.38-.49-.5-.81-.19-.71-.19-1.16c0-.37.05-.78.15-1.23-.1-.02-.2-.07-.29-.16s-.13-.22-.13-.39ZM716.78,10.41s.02-.07.02-.11v-.11c0-.21-.08-.37-.23-.47s-.34-.16-.56-.16c-.34,0-.68.09-1.01.27s-.64.4-.94.67-.55.56-.78.87-.4.59-.53.84c.56-.05,1.08-.12,1.55-.23s.88-.24,1.22-.4.63-.34.84-.54.35-.41.42-.64Z"/>
      <path class="cls-1" d="M721.3,13.65c0-.34.09-.62.27-.86s.42-.39.71-.47c.09-.17.22-.4.4-.7s.4-.61.67-.96.57-.69.91-1.04.71-.66,1.12-.95.85-.52,1.32-.7.97-.27,1.51-.27c.45,0,.85.05,1.18.16s.61.26.83.46.38.43.49.7.16.56.16.87c0,.27-.04.52-.11.76-.11.44-.31.82-.61,1.15s-.65.62-1.05.86-.84.45-1.31.62-.95.3-1.42.41-.93.19-1.37.25-.82.1-1.14.13c-.07.14-.13.32-.18.53s-.08.42-.08.63c0,.45.18.8.54,1.05s.86.38,1.49.38c.37,0,.72-.04,1.05-.12s.65-.19.96-.32.58-.27.85-.42.51-.3.73-.45c.28-.19.55-.35.8-.47s.48-.19.67-.19.32.05.38.15.08.2.08.31c0,.06,0,.12,0,.18s0,.11-.02.15c-.04.2-.12.41-.23.61s-.27.38-.45.53c-.81.64-1.65,1.1-2.5,1.37s-1.77.41-2.74.41c-.19,0-.41-.01-.66-.04s-.52-.07-.79-.14-.54-.17-.81-.3-.5-.31-.71-.53-.38-.49-.5-.81-.19-.71-.19-1.16c0-.37.05-.78.15-1.23-.1-.02-.2-.07-.29-.16s-.13-.22-.13-.39ZM728.64,10.41s.02-.07.02-.11v-.11c0-.21-.08-.37-.23-.47s-.34-.16-.56-.16c-.34,0-.68.09-1.01.27s-.64.4-.94.67-.55.56-.78.87-.4.59-.53.84c.56-.05,1.08-.12,1.55-.23s.88-.24,1.22-.4.63-.34.84-.54.35-.41.42-.64Z"/>
      <path class="cls-1" d="M733.16,13.65c0-.34.09-.62.27-.86s.42-.39.71-.47c.09-.17.22-.4.4-.7s.4-.61.67-.96.57-.69.91-1.04.71-.66,1.12-.95.85-.52,1.32-.7.97-.27,1.51-.27c.45,0,.85.05,1.18.16s.61.26.83.46.38.43.49.7.16.56.16.87c0,.27-.04.52-.11.76-.11.44-.31.82-.61,1.15s-.65.62-1.05.86-.84.45-1.31.62-.95.3-1.42.41-.93.19-1.37.25-.82.1-1.14.13c-.07.14-.13.32-.18.53s-.08.42-.08.63c0,.45.18.8.54,1.05s.86.38,1.49.38c.37,0,.72-.04,1.05-.12s.65-.19.96-.32.58-.27.85-.42.51-.3.73-.45c.28-.19.55-.35.8-.47s.48-.19.67-.19.32.05.38.15.08.2.08.31c0,.06,0,.12,0,.18s0,.11-.02.15c-.04.2-.12.41-.23.61s-.27.38-.45.53c-.81.64-1.65,1.1-2.5,1.37s-1.77.41-2.74.41c-.19,0-.41-.01-.66-.04s-.52-.07-.79-.14-.54-.17-.81-.3-.5-.31-.71-.53-.38-.49-.5-.81-.19-.71-.19-1.16c0-.37.05-.78.15-1.23-.1-.02-.2-.07-.29-.16s-.13-.22-.13-.39ZM740.5,10.41s.02-.07.02-.11v-.11c0-.21-.08-.37-.23-.47s-.34-.16-.56-.16c-.34,0-.68.09-1.01.27s-.64.4-.94.67-.55.56-.78.87-.4.59-.53.84c.56-.05,1.08-.12,1.55-.23s.88-.24,1.22-.4.63-.34.84-.54.35-.41.42-.64Z"/>
      <path class="cls-1" d="M745.02,13.65c0-.34.09-.62.27-.86s.42-.39.71-.47c.09-.17.22-.4.4-.7s.4-.61.67-.96.57-.69.91-1.04.71-.66,1.12-.95.85-.52,1.32-.7.97-.27,1.51-.27c.45,0,.85.05,1.18.16s.61.26.83.46.38.43.49.7.16.56.16.87c0,.27-.04.52-.11.76-.11.44-.31.82-.61,1.15s-.65.62-1.05.86-.84.45-1.31.62-.95.3-1.42.41-.93.19-1.37.25-.82.1-1.14.13c-.07.14-.13.32-.18.53s-.08.42-.08.63c0,.45.18.8.54,1.05s.86.38,1.49.38c.37,0,.72-.04,1.05-.12s.65-.19.96-.32.58-.27.85-.42.51-.3.73-.45c.28-.19.55-.35.8-.47s.48-.19.67-.19.32.05.38.15.08.2.08.31c0,.06,0,.12,0,.18s0,.11-.02.15c-.04.2-.12.41-.23.61s-.27.38-.45.53c-.81.64-1.65,1.1-2.5,1.37s-1.77.41-2.74.41c-.19,0-.41-.01-.66-.04s-.52-.07-.79-.14-.54-.17-.81-.3-.5-.31-.71-.53-.38-.49-.5-.81-.19-.71-.19-1.16c0-.37.05-.78.15-1.23-.1-.02-.2-.07-.29-.16s-.13-.22-.13-.39ZM752.36,10.41s.02-.07.02-.11v-.11c0-.21-.08-.37-.23-.47s-.34-.16-.56-.16c-.34,0-.68.09-1.01.27s-.64.4-.94.67-.55.56-.78.87-.4.59-.53.84c.56-.05,1.08-.12,1.55-.23s.88-.24,1.22-.4.63-.34.84-.54.35-.41.42-.64Z"/>
      <path class="cls-1" d="M756.88,13.65c0-.34.09-.62.27-.86s.42-.39.71-.47c.09-.17.22-.4.4-.7s.4-.61.67-.96.57-.69.91-1.04.71-.66,1.12-.95.85-.52,1.32-.7.97-.27,1.51-.27c.45,0,.85.05,1.18.16s.61.26.83.46.38.43.49.7.16.56.16.87c0,.27-.04.52-.11.76-.11.44-.31.82-.61,1.15s-.65.62-1.05.86-.84.45-1.31.62-.95.3-1.42.41-.93.19-1.37.25-.82.1-1.14.13c-.07.14-.13.32-.18.53s-.08.42-.08.63c0,.45.18.8.54,1.05s.86.38,1.49.38c.37,0,.72-.04,1.05-.12s.65-.19.96-.32.58-.27.85-.42.51-.3.73-.45c.28-.19.55-.35.8-.47s.48-.19.67-.19.32.05.38.15.08.2.08.31c0,.06,0,.12,0,.18s0,.11-.02.15c-.04.2-.12.41-.23.61s-.27.38-.45.53c-.81.64-1.65,1.1-2.5,1.37s-1.77.41-2.74.41c-.19,0-.41-.01-.66-.04s-.52-.07-.79-.14-.54-.17-.81-.3-.5-.31-.71-.53-.38-.49-.5-.81-.19-.71-.19-1.16c0-.37.05-.78.15-1.23-.1-.02-.2-.07-.29-.16s-.13-.22-.13-.39ZM764.21,10.41s.02-.07.02-.11v-.11c0-.21-.08-.37-.23-.47s-.34-.16-.56-.16c-.34,0-.68.09-1.01.27s-.64.4-.94.67-.55.56-.78.87-.4.59-.53.84c.56-.05,1.08-.12,1.55-.23s.88-.24,1.22-.4.63-.34.84-.54.35-.41.42-.64Z"/>
      <path class="cls-1" d="M768.74,13.65c0-.34.09-.62.27-.86s.42-.39.71-.47c.09-.17.22-.4.4-.7s.4-.61.67-.96.57-.69.91-1.04.71-.66,1.12-.95.85-.52,1.32-.7.97-.27,1.51-.27c.45,0,.85.05,1.18.16s.61.26.83.46.38.43.49.7.16.56.16.87c0,.27-.04.52-.11.76-.11.44-.31.82-.61,1.15s-.65.62-1.05.86-.84.45-1.31.62-.95.3-1.42.41-.93.19-1.37.25-.82.1-1.14.13c-.07.14-.13.32-.18.53s-.08.42-.08.63c0,.45.18.8.54,1.05s.86.38,1.49.38c.37,0,.72-.04,1.05-.12s.65-.19.96-.32.58-.27.85-.42.51-.3.73-.45c.28-.19.55-.35.8-.47s.48-.19.67-.19.32.05.38.15.08.2.08.31c0,.06,0,.12,0,.18s0,.11-.02.15c-.04.2-.12.41-.23.61s-.27.38-.45.53c-.81.64-1.65,1.1-2.5,1.37s-1.77.41-2.74.41c-.19,0-.41-.01-.66-.04s-.52-.07-.79-.14-.54-.17-.81-.3-.5-.31-.71-.53-.38-.49-.5-.81-.19-.71-.19-1.16c0-.37.05-.78.15-1.23-.1-.02-.2-.07-.29-.16s-.13-.22-.13-.39ZM776.07,10.41s.02-.07.02-.11v-.11c0-.21-.08-.37-.23-.47s-.34-.16-.56-.16c-.34,0-.68.09-1.01.27s-.64.4-.94.67-.55.56-.78.87-.4.59-.53.84c.56-.05,1.08-.12,1.55-.23s.88-.24,1.22-.4.63-.34.84-.54.35-.41.42-.64Z"/>
      <path class="cls-1" d="M780.6,13.65c0-.34.09-.62.27-.86s.42-.39.71-.47c.09-.17.22-.4.4-.7s.4-.61.67-.96.57-.69.91-1.04.71-.66,1.12-.95.85-.52,1.32-.7.97-.27,1.51-.27c.45,0,.85.05,1.18.16s.61.26.83.46.38.43.49.7.16.56.16.87c0,.27-.04.52-.11.76-.11.44-.31.82-.61,1.15s-.65.62-1.05.86-.84.45-1.31.62-.95.3-1.42.41-.93.19-1.37.25-.82.1-1.14.13c-.07.14-.13.32-.18.53s-.08.42-.08.63c0,.45.18.8.54,1.05s.86.38,1.49.38c.37,0,.72-.04,1.05-.12s.65-.19.96-.32.58-.27.85-.42.51-.3.73-.45c.28-.19.55-.35.8-.47s.48-.19.67-.19.32.05.38.15.08.2.08.31c0,.06,0,.12,0,.18s0,.11-.02.15c-.04.2-.12.41-.23.61s-.27.38-.45.53c-.81.64-1.65,1.1-2.5,1.37s-1.77.41-2.74.41c-.19,0-.41-.01-.66-.04s-.52-.07-.79-.14-.54-.17-.81-.3-.5-.31-.71-.53-.38-.49-.5-.81-.19-.71-.19-1.16c0-.37.05-.78.15-1.23-.1-.02-.2-.07-.29-.16s-.13-.22-.13-.39ZM787.93,10.41s.02-.07.02-.11v-.11c0-.21-.08-.37-.23-.47s-.34-.16-.56-.16c-.34,0-.68.09-1.01.27s-.64.4-.94.67-.55.56-.78.87-.4.59-.53.84c.56-.05,1.08-.12,1.55-.23s.88-.24,1.22-.4.63-.34.84-.54.35-.41.42-.64Z"/>
      <path class="cls-1" d="M792.46,13.65c0-.34.09-.62.27-.86s.42-.39.71-.47c.09-.17.22-.4.4-.7s.4-.61.67-.96.57-.69.91-1.04.71-.66,1.12-.95.85-.52,1.32-.7.97-.27,1.51-.27c.45,0,.85.05,1.18.16s.61.26.83.46.38.43.49.7.16.56.16.87c0,.27-.04.52-.11.76-.11.44-.31.82-.61,1.15s-.65.62-1.05.86-.84.45-1.31.62-.95.3-1.42.41-.93.19-1.37.25-.82.1-1.14.13c-.07.14-.13.32-.18.53s-.08.42-.08.63c0,.45.18.8.54,1.05s.86.38,1.49.38c.37,0,.72-.04,1.05-.12s.65-.19.96-.32.58-.27.85-.42.51-.3.73-.45c.28-.19.55-.35.8-.47s.48-.19.67-.19.32.05.38.15.08.2.08.31c0,.06,0,.12,0,.18s0,.11-.02.15c-.04.2-.12.41-.23.61s-.27.38-.45.53c-.81.64-1.65,1.1-2.5,1.37s-1.77.41-2.74.41c-.19,0-.41-.01-.66-.04s-.52-.07-.79-.14-.54-.17-.81-.3-.5-.31-.71-.53-.38-.49-.5-.81-.19-.71-.19-1.16c0-.37.05-.78.15-1.23-.1-.02-.2-.07-.29-.16s-.13-.22-.13-.39ZM799.79,10.41s.02-.07.02-.11v-.11c0-.21-.08-.37-.23-.47s-.34-.16-.56-.16c-.34,0-.68.09-1.01.27s-.64.4-.94.67-.55.56-.78.87-.4.59-.53.84c.56-.05,1.08-.12,1.55-.23s.88-.24,1.22-.4.63-.34.84-.54.35-.41.42-.64Z"/>
      <path class="cls-1" d="M804.32,13.65c0-.34.09-.62.27-.86s.42-.39.71-.47c.09-.17.22-.4.4-.7s.4-.61.67-.96.57-.69.91-1.04.71-.66,1.12-.95.85-.52,1.32-.7.97-.27,1.51-.27c.45,0,.85.05,1.18.16s.61.26.83.46.38.43.49.7.16.56.16.87c0,.27-.04.52-.11.76-.11.44-.31.82-.61,1.15s-.65.62-1.05.86-.84.45-1.31.62-.95.3-1.42.41-.93.19-1.37.25-.82.1-1.14.13c-.07.14-.13.32-.18.53s-.08.42-.08.63c0,.45.18.8.54,1.05s.86.38,1.49.38c.37,0,.72-.04,1.05-.12s.65-.19.96-.32.58-.27.85-.42.51-.3.73-.45c.28-.19.55-.35.8-.47s.48-.19.67-.19.32.05.38.15.08.2.08.31c0,.06,0,.12,0,.18s0,.11-.02.15c-.04.2-.12.41-.23.61s-.27.38-.45.53c-.81.64-1.65,1.1-2.5,1.37s-1.77.41-2.74.41c-.19,0-.41-.01-.66-.04s-.52-.07-.79-.14-.54-.17-.81-.3-.5-.31-.71-.53-.38-.49-.5-.81-.19-.71-.19-1.16c0-.37.05-.78.15-1.23-.1-.02-.2-.07-.29-.16s-.13-.22-.13-.39ZM811.65,10.41s.02-.07.02-.11v-.11c0-.21-.08-.37-.23-.47s-.34-.16-.56-.16c-.34,0-.68.09-1.01.27s-.64.4-.94.67-.55.56-.78.87-.4.59-.53.84c.56-.05,1.08-.12,1.55-.23s.88-.24,1.22-.4.63-.34.84-.54.35-.41.42-.64Z"/>
      <path class="cls-1" d="M816.18,13.65c0-.34.09-.62.27-.86s.42-.39.71-.47c.09-.17.22-.4.4-.7s.4-.61.67-.96.57-.69.91-1.04.71-.66,1.12-.95.85-.52,1.32-.7.97-.27,1.51-.27c.45,0,.85.05,1.18.16s.61.26.83.46.38.43.49.7.16.56.16.87c0,.27-.04.52-.11.76-.11.44-.31.82-.61,1.15s-.65.62-1.05.86-.84.45-1.31.62-.95.3-1.42.41-.93.19-1.37.25-.82.1-1.14.13c-.07.14-.13.32-.18.53s-.08.42-.08.63c0,.45.18.8.54,1.05s.86.38,1.49.38c.37,0,.72-.04,1.05-.12s.65-.19.96-.32.58-.27.85-.42.51-.3.73-.45c.28-.19.55-.35.8-.47s.48-.19.67-.19.32.05.38.15.08.2.08.31c0,.06,0,.12,0,.18s0,.11-.02.15c-.04.2-.12.41-.23.61s-.27.38-.45.53c-.81.64-1.65,1.1-2.5,1.37s-1.77.41-2.74.41c-.19,0-.41-.01-.66-.04s-.52-.07-.79-.14-.54-.17-.81-.3-.5-.31-.71-.53-.38-.49-.5-.81-.19-.71-.19-1.16c0-.37.05-.78.15-1.23-.1-.02-.2-.07-.29-.16s-.13-.22-.13-.39ZM823.51,10.41s.02-.07.02-.11v-.11c0-.21-.08-.37-.23-.47s-.34-.16-.56-.16c-.34,0-.68.09-1.01.27s-.64.4-.94.67-.55.56-.78.87-.4.59-.53.84c.56-.05,1.08-.12,1.55-.23s.88-.24,1.22-.4.63-.34.84-.54.35-.41.42-.64Z"/>
      <path class="cls-1" d="M828.04,13.65c0-.34.09-.62.27-.86s.42-.39.71-.47c.09-.17.22-.4.4-.7s.4-.61.67-.96.57-.69.91-1.04.71-.66,1.12-.95.85-.52,1.32-.7.97-.27,1.51-.27c.45,0,.85.05,1.18.16s.61.26.83.46.38.43.49.7.16.56.16.87c0,.27-.04.52-.11.76-.11.44-.31.82-.61,1.15s-.65.62-1.05.86-.84.45-1.31.62-.95.3-1.42.41-.93.19-1.37.25-.82.1-1.14.13c-.07.14-.13.32-.18.53s-.08.42-.08.63c0,.45.18.8.54,1.05s.86.38,1.49.38c.37,0,.72-.04,1.05-.12s.65-.19.96-.32.58-.27.85-.42.51-.3.73-.45c.28-.19.55-.35.8-.47s.48-.19.67-.19.32.05.38.15.08.2.08.31c0,.06,0,.12,0,.18s0,.11-.02.15c-.04.2-.12.41-.23.61s-.27.38-.45.53c-.81.64-1.65,1.1-2.5,1.37s-1.77.41-2.74.41c-.19,0-.41-.01-.66-.04s-.52-.07-.79-.14-.54-.17-.81-.3-.5-.31-.71-.53-.38-.49-.5-.81-.19-.71-.19-1.16c0-.37.05-.78.15-1.23-.1-.02-.2-.07-.29-.16s-.13-.22-.13-.39ZM835.37,10.41s.02-.07.02-.11v-.11c0-.21-.08-.37-.23-.47s-.34-.16-.56-.16c-.34,0-.68.09-1.01.27s-.64.4-.94.67-.55.56-.78.87-.4.59-.53.84c.56-.05,1.08-.12,1.55-.23s.88-.24,1.22-.4.63-.34.84-.54.35-.41.42-.64Z"/>
      <path class="cls-1" d="M839.89,13.65c0-.34.09-.62.27-.86s.42-.39.71-.47c.09-.17.22-.4.4-.7s.4-.61.67-.96.57-.69.91-1.04.71-.66,1.12-.95.85-.52,1.32-.7.97-.27,1.51-.27c.45,0,.85.05,1.18.16s.61.26.83.46.38.43.49.7.16.56.16.87c0,.27-.04.52-.11.76-.11.44-.31.82-.61,1.15s-.65.62-1.05.86-.84.45-1.31.62-.95.3-1.42.41-.93.19-1.37.25-.82.1-1.14.13c-.07.14-.13.32-.18.53s-.08.42-.08.63c0,.45.18.8.54,1.05s.86.38,1.49.38c.37,0,.72-.04,1.05-.12s.65-.19.96-.32.58-.27.85-.42.51-.3.73-.45c.28-.19.55-.35.8-.47s.48-.19.67-.19.32.05.38.15.08.2.08.31c0,.06,0,.12,0,.18s0,.11-.02.15c-.04.2-.12.41-.23.61s-.27.38-.45.53c-.81.64-1.65,1.1-2.5,1.37s-1.77.41-2.74.41c-.19,0-.41-.01-.66-.04s-.52-.07-.79-.14-.54-.17-.81-.3-.5-.31-.71-.53-.38-.49-.5-.81-.19-.71-.19-1.16c0-.37.05-.78.15-1.23-.1-.02-.2-.07-.29-.16s-.13-.22-.13-.39ZM847.23,10.41s.02-.07.02-.11v-.11c0-.21-.08-.37-.23-.47s-.34-.16-.56-.16c-.34,0-.68.09-1.01.27s-.64.4-.94.67-.55.56-.78.87-.4.59-.53.84c.56-.05,1.08-.12,1.55-.23s.88-.24,1.22-.4.63-.34.84-.54.35-.41.42-.64Z"/>
      <path class="cls-1" d="M851.75,13.65c0-.34.09-.62.27-.86s.42-.39.71-.47c.09-.17.22-.4.4-.7s.4-.61.67-.96.57-.69.91-1.04.71-.66,1.12-.95.85-.52,1.32-.7.97-.27,1.51-.27c.45,0,.85.05,1.18.16s.61.26.83.46.38.43.49.7.16.56.16.87c0,.27-.04.52-.11.76-.11.44-.31.82-.61,1.15s-.65.62-1.05.86-.84.45-1.31.62-.95.3-1.42.41-.93.19-1.37.25-.82.1-1.14.13c-.07.14-.13.32-.18.53s-.08.42-.08.63c0,.45.18.8.54,1.05s.86.38,1.49.38c.37,0,.72-.04,1.05-.12s.65-.19.96-.32.58-.27.85-.42.51-.3.73-.45c.28-.19.55-.35.8-.47s.48-.19.67-.19.32.05.38.15.08.2.08.31c0,.06,0,.12,0,.18s0,.11-.02.15c-.04.2-.12.41-.23.61s-.27.38-.45.53c-.81.64-1.65,1.1-2.5,1.37s-1.77.41-2.74.41c-.19,0-.41-.01-.66-.04s-.52-.07-.79-.14-.54-.17-.81-.3-.5-.31-.71-.53-.38-.49-.5-.81-.19-.71-.19-1.16c0-.37.05-.78.15-1.23-.1-.02-.2-.07-.29-.16s-.13-.22-.13-.39ZM859.09,10.41s.02-.07.02-.11v-.11c0-.21-.08-.37-.23-.47s-.34-.16-.56-.16c-.34,0-.68.09-1.01.27s-.64.4-.94.67-.55.56-.78.87-.4.59-.53.84c.56-.05,1.08-.12,1.55-.23s.88-.24,1.22-.4.63-.34.84-.54.35-.41.42-.64Z"/>
      <path class="cls-1" d="M863.61,13.65c0-.34.09-.62.27-.86s.42-.39.71-.47c.09-.17.22-.4.4-.7s.4-.61.67-.96.57-.69.91-1.04.71-.66,1.12-.95.85-.52,1.32-.7.97-.27,1.51-.27c.45,0,.85.05,1.18.16s.61.26.83.46.38.43.49.7.16.56.16.87c0,.27-.04.52-.11.76-.11.44-.31.82-.61,1.15s-.65.62-1.05.86-.84.45-1.31.62-.95.3-1.42.41-.93.19-1.37.25-.82.1-1.14.13c-.07.14-.13.32-.18.53s-.08.42-.08.63c0,.45.18.8.54,1.05s.86.38,1.49.38c.37,0,.72-.04,1.05-.12s.65-.19.96-.32.58-.27.85-.42.51-.3.73-.45c.28-.19.55-.35.8-.47s.48-.19.67-.19.32.05.38.15.08.2.08.31c0,.06,0,.12,0,.18s0,.11-.02.15c-.04.2-.12.41-.23.61s-.27.38-.45.53c-.81.64-1.65,1.1-2.5,1.37s-1.77.41-2.74.41c-.19,0-.41-.01-.66-.04s-.52-.07-.79-.14-.54-.17-.81-.3-.5-.31-.71-.53-.38-.49-.5-.81-.19-.71-.19-1.16c0-.37.05-.78.15-1.23-.1-.02-.2-.07-.29-.16s-.13-.22-.13-.39ZM870.95,10.41s.02-.07.02-.11v-.11c0-.21-.08-.37-.23-.47s-.34-.16-.56-.16c-.34,0-.68.09-1.01.27s-.64.4-.94.67-.55.56-.78.87-.4.59-.53.84c.56-.05,1.08-.12,1.55-.23s.88-.24,1.22-.4.63-.34.84-.54.35-.41.42-.64Z"/>
      <path class="cls-1" d="M875.47,13.65c0-.34.09-.62.27-.86s.42-.39.71-.47c.09-.17.22-.4.4-.7s.4-.61.67-.96.57-.69.91-1.04.71-.66,1.12-.95.85-.52,1.32-.7.97-.27,1.51-.27c.45,0,.85.05,1.18.16s.61.26.83.46.38.43.49.7.16.56.16.87c0,.27-.04.52-.11.76-.11.44-.31.82-.61,1.15s-.65.62-1.05.86-.84.45-1.31.62-.95.3-1.42.41-.93.19-1.37.25-.82.1-1.14.13c-.07.14-.13.32-.18.53s-.08.42-.08.63c0,.45.18.8.54,1.05s.86.38,1.49.38c.37,0,.72-.04,1.05-.12s.65-.19.96-.32.58-.27.85-.42.51-.3.73-.45c.28-.19.55-.35.8-.47s.48-.19.67-.19.32.05.38.15.08.2.08.31c0,.06,0,.12,0,.18s0,.11-.02.15c-.04.2-.12.41-.23.61s-.27.38-.45.53c-.81.64-1.65,1.1-2.5,1.37s-1.77.41-2.74.41c-.19,0-.41-.01-.66-.04s-.52-.07-.79-.14-.54-.17-.81-.3-.5-.31-.71-.53-.38-.49-.5-.81-.19-.71-.19-1.16c0-.37.05-.78.15-1.23-.1-.02-.2-.07-.29-.16s-.13-.22-.13-.39ZM882.81,10.41s.02-.07.02-.11v-.11c0-.21-.08-.37-.23-.47s-.34-.16-.56-.16c-.34,0-.68.09-1.01.27s-.64.4-.94.67-.55.56-.78.87-.4.59-.53.84c.56-.05,1.08-.12,1.55-.23s.88-.24,1.22-.4.63-.34.84-.54.35-.41.42-.64Z"/>
      <path class="cls-1" d="M887.33,13.65c0-.34.09-.62.27-.86s.42-.39.71-.47c.09-.17.22-.4.4-.7s.4-.61.67-.96.57-.69.91-1.04.71-.66,1.12-.95.85-.52,1.32-.7.97-.27,1.51-.27c.45,0,.85.05,1.18.16s.61.26.83.46.38.43.49.7.16.56.16.87c0,.27-.04.52-.11.76-.11.44-.31.82-.61,1.15s-.65.62-1.05.86-.84.45-1.31.62-.95.3-1.42.41-.93.19-1.37.25-.82.1-1.14.13c-.07.14-.13.32-.18.53s-.08.42-.08.63c0,.45.18.8.54,1.05s.86.38,1.49.38c.37,0,.72-.04,1.05-.12s.65-.19.96-.32.58-.27.85-.42.51-.3.73-.45c.28-.19.55-.35.8-.47s.48-.19.67-.19.32.05.38.15.08.2.08.31c0,.06,0,.12,0,.18s0,.11-.02.15c-.04.2-.12.41-.23.61s-.27.38-.45.53c-.81.64-1.65,1.1-2.5,1.37s-1.77.41-2.74.41c-.19,0-.41-.01-.66-.04s-.52-.07-.79-.14-.54-.17-.81-.3-.5-.31-.71-.53-.38-.49-.5-.81-.19-.71-.19-1.16c0-.37.05-.78.15-1.23-.1-.02-.2-.07-.29-.16s-.13-.22-.13-.39ZM894.67,10.41s.02-.07.02-.11v-.11c0-.21-.08-.37-.23-.47s-.34-.16-.56-.16c-.34,0-.68.09-1.01.27s-.64.4-.94.67-.55.56-.78.87-.4.59-.53.84c.56-.05,1.08-.12,1.55-.23s.88-.24,1.22-.4.63-.34.84-.54.35-.41.42-.64Z"/>
      <path class="cls-1" d="M899.19,13.65c0-.34.09-.62.27-.86s.42-.39.71-.47c.09-.17.22-.4.4-.7s.4-.61.67-.96.57-.69.91-1.04.71-.66,1.12-.95.85-.52,1.32-.7.97-.27,1.51-.27c.45,0,.85.05,1.18.16s.61.26.83.46.38.43.49.7.16.56.16.87c0,.27-.04.52-.11.76-.11.44-.31.82-.61,1.15s-.65.62-1.05.86-.84.45-1.31.62-.95.3-1.42.41-.93.19-1.37.25-.82.1-1.14.13c-.07.14-.13.32-.18.53s-.08.42-.08.63c0,.45.18.8.54,1.05s.86.38,1.49.38c.37,0,.72-.04,1.05-.12s.65-.19.96-.32.58-.27.85-.42.51-.3.73-.45c.28-.19.55-.35.8-.47s.48-.19.67-.19.32.05.38.15.08.2.08.31c0,.06,0,.12,0,.18s0,.11-.02.15c-.04.2-.12.41-.23.61s-.27.38-.45.53c-.81.64-1.65,1.1-2.5,1.37s-1.77.41-2.74.41c-.19,0-.41-.01-.66-.04s-.52-.07-.79-.14-.54-.17-.81-.3-.5-.31-.71-.53-.38-.49-.5-.81-.19-.71-.19-1.16c0-.37.05-.78.15-1.23-.1-.02-.2-.07-.29-.16s-.13-.22-.13-.39ZM906.53,10.41s.02-.07.02-.11v-.11c0-.21-.08-.37-.23-.47s-.34-.16-.56-.16c-.34,0-.68.09-1.01.27s-.64.4-.94.67-.55.56-.78.87-.4.59-.53.84c.56-.05,1.08-.12,1.55-.23s.88-.24,1.22-.4.63-.34.84-.54.35-.41.42-.64Z"/>
      <path class="cls-1" d="M911.05,13.65c0-.34.09-.62.27-.86s.42-.39.71-.47c.09-.17.22-.4.4-.7s.4-.61.67-.96.57-.69.91-1.04.71-.66,1.12-.95.85-.52,1.32-.7.97-.27,1.51-.27c.45,0,.85.05,1.18.16s.61.26.83.46.38.43.49.7.16.56.16.87c0,.27-.04.52-.11.76-.11.44-.31.82-.61,1.15s-.65.62-1.05.86-.84.45-1.31.62-.95.3-1.42.41-.93.19-1.37.25-.82.1-1.14.13c-.07.14-.13.32-.18.53s-.08.42-.08.63c0,.45.18.8.54,1.05s.86.38,1.49.38c.37,0,.72-.04,1.05-.12s.65-.19.96-.32.58-.27.85-.42.51-.3.73-.45c.28-.19.55-.35.8-.47s.48-.19.67-.19.32.05.38.15.08.2.08.31c0,.06,0,.12,0,.18s0,.11-.02.15c-.04.2-.12.41-.23.61s-.27.38-.45.53c-.81.64-1.65,1.1-2.5,1.37s-1.77.41-2.74.41c-.19,0-.41-.01-.66-.04s-.52-.07-.79-.14-.54-.17-.81-.3-.5-.31-.71-.53-.38-.49-.5-.81-.19-.71-.19-1.16c0-.37.05-.78.15-1.23-.1-.02-.2-.07-.29-.16s-.13-.22-.13-.39ZM918.39,10.41s.02-.07.02-.11v-.11c0-.21-.08-.37-.23-.47s-.34-.16-.56-.16c-.34,0-.68.09-1.01.27s-.64.4-.94.67-.55.56-.78.87-.4.59-.53.84c.56-.05,1.08-.12,1.55-.23s.88-.24,1.22-.4.63-.34.84-.54.35-.41.42-.64Z"/>
      <path class="cls-1" d="M922.91,13.65c0-.34.09-.62.27-.86s.42-.39.71-.47c.09-.17.22-.4.4-.7s.4-.61.67-.96.57-.69.91-1.04.71-.66,1.12-.95.85-.52,1.32-.7.97-.27,1.51-.27c.45,0,.85.05,1.18.16s.61.26.83.46.38.43.49.7.16.56.16.87c0,.27-.04.52-.11.76-.11.44-.31.82-.61,1.15s-.65.62-1.05.86-.84.45-1.31.62-.95.3-1.42.41-.93.19-1.37.25-.82.1-1.14.13c-.07.14-.13.32-.18.53s-.08.42-.08.63c0,.45.18.8.54,1.05s.86.38,1.49.38c.37,0,.72-.04,1.05-.12s.65-.19.96-.32.58-.27.85-.42.51-.3.73-.45c.28-.19.55-.35.8-.47s.48-.19.67-.19.32.05.38.15.08.2.08.31c0,.06,0,.12,0,.18s0,.11-.02.15c-.04.2-.12.41-.23.61s-.27.38-.45.53c-.81.64-1.65,1.1-2.5,1.37s-1.77.41-2.74.41c-.19,0-.41-.01-.66-.04s-.52-.07-.79-.14-.54-.17-.81-.3-.5-.31-.71-.53-.38-.49-.5-.81-.19-.71-.19-1.16c0-.37.05-.78.15-1.23-.1-.02-.2-.07-.29-.16s-.13-.22-.13-.39ZM930.25,10.41s.02-.07.02-.11v-.11c0-.21-.08-.37-.23-.47s-.34-.16-.56-.16c-.34,0-.68.09-1.01.27s-.64.4-.94.67-.55.56-.78.87-.4.59-.53.84c.56-.05,1.08-.12,1.55-.23s.88-.24,1.22-.4.63-.34.84-.54.35-.41.42-.64Z"/>
      <path class="cls-1" d="M934.77,13.65c0-.34.09-.62.27-.86s.42-.39.71-.47c.09-.17.22-.4.4-.7s.4-.61.67-.96.57-.69.91-1.04.71-.66,1.12-.95.85-.52,1.32-.7.97-.27,1.51-.27c.45,0,.85.05,1.18.16s.61.26.83.46.38.43.49.7.16.56.16.87c0,.27-.04.52-.11.76-.11.44-.31.82-.61,1.15s-.65.62-1.05.86-.84.45-1.31.62-.95.3-1.42.41-.93.19-1.37.25-.82.1-1.14.13c-.07.14-.13.32-.18.53s-.08.42-.08.63c0,.45.18.8.54,1.05s.86.38,1.49.38c.37,0,.72-.04,1.05-.12s.65-.19.96-.32.58-.27.85-.42.51-.3.73-.45c.28-.19.55-.35.8-.47s.48-.19.67-.19.32.05.38.15.08.2.08.31c0,.06,0,.12,0,.18s0,.11-.02.15c-.04.2-.12.41-.23.61s-.27.38-.45.53c-.81.64-1.65,1.1-2.5,1.37s-1.77.41-2.74.41c-.19,0-.41-.01-.66-.04s-.52-.07-.79-.14-.54-.17-.81-.3-.5-.31-.71-.53-.38-.49-.5-.81-.19-.71-.19-1.16c0-.37.05-.78.15-1.23-.1-.02-.2-.07-.29-.16s-.13-.22-.13-.39ZM942.11,10.41s.02-.07.02-.11v-.11c0-.21-.08-.37-.23-.47s-.34-.16-.56-.16c-.34,0-.68.09-1.01.27s-.64.4-.94.67-.55.56-.78.87-.4.59-.53.84c.56-.05,1.08-.12,1.55-.23s.88-.24,1.22-.4.63-.34.84-.54.35-.41.42-.64Z"/>
      <path class="cls-1" d="M946.63,13.65c0-.34.09-.62.27-.86s.42-.39.71-.47c.09-.17.22-.4.4-.7s.4-.61.67-.96.57-.69.91-1.04.71-.66,1.12-.95.85-.52,1.32-.7.97-.27,1.51-.27c.45,0,.85.05,1.18.16s.61.26.83.46.38.43.49.7.16.56.16.87c0,.27-.04.52-.11.76-.11.44-.31.82-.61,1.15s-.65.62-1.05.86-.84.45-1.31.62-.95.3-1.42.41-.93.19-1.37.25-.82.1-1.14.13c-.07.14-.13.32-.18.53s-.08.42-.08.63c0,.45.18.8.54,1.05s.86.38,1.49.38c.37,0,.72-.04,1.05-.12s.65-.19.96-.32.58-.27.85-.42.51-.3.73-.45c.28-.19.55-.35.8-.47s.48-.19.67-.19.32.05.38.15.08.2.08.31c0,.06,0,.12,0,.18s0,.11-.02.15c-.04.2-.12.41-.23.61s-.27.38-.45.53c-.81.64-1.65,1.1-2.5,1.37s-1.77.41-2.74.41c-.19,0-.41-.01-.66-.04s-.52-.07-.79-.14-.54-.17-.81-.3-.5-.31-.71-.53-.38-.49-.5-.81-.19-.71-.19-1.16c0-.37.05-.78.15-1.23-.1-.02-.2-.07-.29-.16s-.13-.22-.13-.39ZM953.96,10.41s.02-.07.02-.11v-.11c0-.21-.08-.37-.23-.47s-.34-.16-.56-.16c-.34,0-.68.09-1.01.27s-.64.4-.94.67-.55.56-.78.87-.4.59-.53.84c.56-.05,1.08-.12,1.55-.23s.88-.24,1.22-.4.63-.34.84-.54.35-.41.42-.64Z"/>
      <path class="cls-1" d="M958.49,13.65c0-.34.09-.62.27-.86s.42-.39.71-.47c.09-.17.22-.4.4-.7s.4-.61.67-.96.57-.69.91-1.04.71-.66,1.12-.95.85-.52,1.32-.7.97-.27,1.51-.27c.45,0,.85.05,1.18.16s.61.26.83.46.38.43.49.7.16.56.16.87c0,.27-.04.52-.11.76-.11.44-.31.82-.61,1.15s-.65.62-1.05.86-.84.45-1.31.62-.95.3-1.42.41-.93.19-1.37.25-.82.1-1.14.13c-.07.14-.13.32-.18.53s-.08.42-.08.63c0,.45.18.8.54,1.05s.86.38,1.49.38c.37,0,.72-.04,1.05-.12s.65-.19.96-.32.58-.27.85-.42.51-.3.73-.45c.28-.19.55-.35.8-.47s.48-.19.67-.19.32.05.38.15.08.2.08.31c0,.06,0,.12,0,.18s0,.11-.02.15c-.04.2-.12.41-.23.61s-.27.38-.45.53c-.81.64-1.65,1.1-2.5,1.37s-1.77.41-2.74.41c-.19,0-.41-.01-.66-.04s-.52-.07-.79-.14-.54-.17-.81-.3-.5-.31-.71-.53-.38-.49-.5-.81-.19-.71-.19-1.16c0-.37.05-.78.15-1.23-.1-.02-.2-.07-.29-.16s-.13-.22-.13-.39ZM965.82,10.41s.02-.07.02-.11v-.11c0-.21-.08-.37-.23-.47s-.34-.16-.56-.16c-.34,0-.68.09-1.01.27s-.64.4-.94.67-.55.56-.78.87-.4.59-.53.84c.56-.05,1.08-.12,1.55-.23s.88-.24,1.22-.4.63-.34.84-.54.35-.41.42-.64Z"/>
      <path class="cls-1" d="M970.35,13.65c0-.34.09-.62.27-.86s.42-.39.71-.47c.09-.17.22-.4.4-.7s.4-.61.67-.96.57-.69.91-1.04.71-.66,1.12-.95.85-.52,1.32-.7.97-.27,1.51-.27c.45,0,.85.05,1.18.16s.61.26.83.46.38.43.49.7.16.56.16.87c0,.27-.04.52-.11.76-.11.44-.31.82-.61,1.15s-.65.62-1.05.86-.84.45-1.31.62-.95.3-1.42.41-.93.19-1.37.25-.82.1-1.14.13c-.07.14-.13.32-.18.53s-.08.42-.08.63c0,.45.18.8.54,1.05s.86.38,1.49.38c.37,0,.72-.04,1.05-.12s.65-.19.96-.32.58-.27.85-.42.51-.3.73-.45c.28-.19.55-.35.8-.47s.48-.19.67-.19.32.05.38.15.08.2.08.31c0,.06,0,.12,0,.18s0,.11-.02.15c-.04.2-.12.41-.23.61s-.27.38-.45.53c-.81.64-1.65,1.1-2.5,1.37s-1.77.41-2.74.41c-.19,0-.41-.01-.66-.04s-.52-.07-.79-.14-.54-.17-.81-.3-.5-.31-.71-.53-.38-.49-.5-.81-.19-.71-.19-1.16c0-.37.05-.78.15-1.23-.1-.02-.2-.07-.29-.16s-.13-.22-.13-.39ZM977.68,10.41s.02-.07.02-.11v-.11c0-.21-.08-.37-.23-.47s-.34-.16-.56-.16c-.34,0-.68.09-1.01.27s-.64.4-.94.67-.55.56-.78.87-.4.59-.53.84c.56-.05,1.08-.12,1.55-.23s.88-.24,1.22-.4.63-.34.84-.54.35-.41.42-.64Z"/>
      <path class="cls-1" d="M982.21,13.65c0-.34.09-.62.27-.86s.42-.39.71-.47c.09-.17.22-.4.4-.7s.4-.61.67-.96.57-.69.91-1.04.71-.66,1.12-.95.85-.52,1.32-.7.97-.27,1.51-.27c.45,0,.85.05,1.18.16s.61.26.83.46.38.43.49.7.16.56.16.87c0,.27-.04.52-.11.76-.11.44-.31.82-.61,1.15s-.65.62-1.05.86-.84.45-1.31.62-.95.3-1.42.41-.93.19-1.37.25-.82.1-1.14.13c-.07.14-.13.32-.18.53s-.08.42-.08.63c0,.45.18.8.54,1.05s.86.38,1.49.38c.37,0,.72-.04,1.05-.12s.65-.19.96-.32.58-.27.85-.42.51-.3.73-.45c.28-.19.55-.35.8-.47s.48-.19.67-.19.32.05.38.15.08.2.08.31c0,.06,0,.12,0,.18s0,.11-.02.15c-.04.2-.12.41-.23.61s-.27.38-.45.53c-.81.64-1.65,1.1-2.5,1.37s-1.77.41-2.74.41c-.19,0-.41-.01-.66-.04s-.52-.07-.79-.14-.54-.17-.81-.3-.5-.31-.71-.53-.38-.49-.5-.81-.19-.71-.19-1.16c0-.37.05-.78.15-1.23-.1-.02-.2-.07-.29-.16s-.13-.22-.13-.39ZM989.54,10.41s.02-.07.02-.11v-.11c0-.21-.08-.37-.23-.47s-.34-.16-.56-.16c-.34,0-.68.09-1.01.27s-.64.4-.94.67-.55.56-.78.87-.4.59-.53.84c.56-.05,1.08-.12,1.55-.23s.88-.24,1.22-.4.63-.34.84-.54.35-.41.42-.64Z"/>
      <path class="cls-1" d="M994.07,13.65c0-.34.09-.62.27-.86s.42-.39.71-.47c.09-.17.22-.4.4-.7s.4-.61.67-.96.57-.69.91-1.04.71-.66,1.12-.95.85-.52,1.32-.7.97-.27,1.51-.27c.45,0,.85.05,1.18.16s.61.26.83.46.38.43.49.7.16.56.16.87c0,.27-.04.52-.11.76-.11.44-.31.82-.61,1.15s-.65.62-1.05.86-.84.45-1.31.62-.95.3-1.42.41-.93.19-1.37.25-.82.1-1.14.13c-.07.14-.13.32-.18.53s-.08.42-.08.63c0,.45.18.8.54,1.05s.86.38,1.49.38c.37,0,.72-.04,1.05-.12s.65-.19.96-.32.58-.27.85-.42.51-.3.73-.45c.28-.19.55-.35.8-.47s.48-.19.67-.19.32.05.38.15.08.2.08.31c0,.06,0,.12,0,.18s0,.11-.02.15c-.04.2-.12.41-.23.61s-.27.38-.45.53c-.81.64-1.65,1.1-2.5,1.37s-1.77.41-2.74.41c-.19,0-.41-.01-.66-.04s-.52-.07-.79-.14-.54-.17-.81-.3-.5-.31-.71-.53-.38-.49-.5-.81-.19-.71-.19-1.16c0-.37.05-.78.15-1.23-.1-.02-.2-.07-.29-.16s-.13-.22-.13-.39ZM1001.4,10.41s.02-.07.02-.11v-.11c0-.21-.08-.37-.23-.47s-.34-.16-.56-.16c-.34,0-.68.09-1.01.27s-.64.4-.94.67-.55.56-.78.87-.4.59-.53.84c.56-.05,1.08-.12,1.55-.23s.88-.24,1.22-.4.63-.34.84-.54.35-.41.42-.64Z"/>
      <path class="cls-1" d="M1005.93,13.65c0-.34.09-.62.27-.86s.42-.39.71-.47c.09-.17.22-.4.4-.7s.4-.61.67-.96.57-.69.91-1.04.71-.66,1.12-.95.85-.52,1.32-.7.97-.27,1.51-.27c.45,0,.85.05,1.18.16s.61.26.83.46.38.43.49.7.16.56.16.87c0,.27-.04.52-.11.76-.11.44-.31.82-.61,1.15s-.65.62-1.05.86-.84.45-1.31.62-.95.3-1.42.41-.93.19-1.37.25-.82.1-1.14.13c-.07.14-.13.32-.18.53s-.08.42-.08.63c0,.45.18.8.54,1.05s.86.38,1.49.38c.37,0,.72-.04,1.05-.12s.65-.19.96-.32.58-.27.85-.42.51-.3.73-.45c.28-.19.55-.35.8-.47s.48-.19.67-.19.32.05.38.15.08.2.08.31c0,.06,0,.12,0,.18s0,.11-.02.15c-.04.2-.12.41-.23.61s-.27.38-.45.53c-.81.64-1.65,1.1-2.5,1.37s-1.77.41-2.74.41c-.19,0-.41-.01-.66-.04s-.52-.07-.79-.14-.54-.17-.81-.3-.5-.31-.71-.53-.38-.49-.5-.81-.19-.71-.19-1.16c0-.37.05-.78.15-1.23-.1-.02-.2-.07-.29-.16s-.13-.22-.13-.39ZM1013.26,10.41s.02-.07.02-.11v-.11c0-.21-.08-.37-.23-.47s-.34-.16-.56-.16c-.34,0-.68.09-1.01.27s-.64.4-.94.67-.55.56-.78.87-.4.59-.53.84c.56-.05,1.08-.12,1.55-.23s.88-.24,1.22-.4.63-.34.84-.54.35-.41.42-.64Z"/>
      <path class="cls-1" d="M1017.79,13.65c0-.34.09-.62.27-.86s.42-.39.71-.47c.09-.17.22-.4.4-.7s.4-.61.67-.96.57-.69.91-1.04.71-.66,1.12-.95.85-.52,1.32-.7.97-.27,1.51-.27c.45,0,.85.05,1.18.16s.61.26.83.46.38.43.49.7.16.56.16.87c0,.27-.04.52-.11.76-.11.44-.31.82-.61,1.15s-.65.62-1.05.86-.84.45-1.31.62-.95.3-1.42.41-.93.19-1.37.25-.82.1-1.14.13c-.07.14-.13.32-.18.53s-.08.42-.08.63c0,.45.18.8.54,1.05s.86.38,1.49.38c.37,0,.72-.04,1.05-.12s.65-.19.96-.32.58-.27.85-.42.51-.3.73-.45c.28-.19.55-.35.8-.47s.48-.19.67-.19.32.05.38.15.08.2.08.31c0,.06,0,.12,0,.18s0,.11-.02.15c-.04.2-.12.41-.23.61s-.27.38-.45.53c-.81.64-1.65,1.1-2.5,1.37s-1.77.41-2.74.41c-.19,0-.41-.01-.66-.04s-.52-.07-.79-.14-.54-.17-.81-.3-.5-.31-.71-.53-.38-.49-.5-.81-.19-.71-.19-1.16c0-.37.05-.78.15-1.23-.1-.02-.2-.07-.29-.16s-.13-.22-.13-.39ZM1025.12,10.41s.02-.07.02-.11v-.11c0-.21-.08-.37-.23-.47s-.34-.16-.56-.16c-.34,0-.68.09-1.01.27s-.64.4-.94.67-.55.56-.78.87-.4.59-.53.84c.56-.05,1.08-.12,1.55-.23s.88-.24,1.22-.4.63-.34.84-.54.35-.41.42-.64Z"/>
      <path class="cls-1" d="M1033.08,16.28c0,.54-.21,1.01-.62,1.4s-.89.59-1.42.59c-.41,0-.75-.14-1.04-.43s-.43-.63-.43-1.04c0-.54.22-1.01.65-1.42s.91-.62,1.44-.62c.41,0,.74.14,1.01.43s.4.65.4,1.08ZM1036.97,1.71c0,.33-.16.82-.48,1.49-.24.51-.72,1.72-1.44,3.63s-1.15,3.09-1.31,3.54-.3,1.01-.42,1.66c-.1.51-.45.76-1.05.76-.77,0-1.16-.38-1.16-1.15,0-.8.48-2.35,1.44-4.63s1.69-3.85,2.21-4.7,1.01-1.27,1.49-1.27.73.22.73.67Z"/>
      <path class="cls-1" d="M1041.81,16.28c0,.54-.21,1.01-.62,1.4s-.89.59-1.42.59c-.41,0-.75-.14-1.04-.43s-.43-.63-.43-1.04c0-.54.22-1.01.65-1.42s.91-.62,1.44-.62c.41,0,.74.14,1.01.43s.4.65.4,1.08ZM1045.7,1.71c0,.33-.16.82-.48,1.49-.24.51-.72,1.72-1.44,3.63s-1.15,3.09-1.31,3.54-.3,1.01-.42,1.66c-.1.51-.45.76-1.05.76-.77,0-1.16-.38-1.16-1.15,0-.8.48-2.35,1.44-4.63s1.69-3.85,2.21-4.7,1.01-1.27,1.49-1.27.73.22.73.67Z"/>
      <path class="cls-1" d="M1050.54,16.28c0,.54-.21,1.01-.62,1.4s-.89.59-1.42.59c-.41,0-.75-.14-1.04-.43s-.43-.63-.43-1.04c0-.54.22-1.01.65-1.42s.91-.62,1.44-.62c.41,0,.74.14,1.01.43s.4.65.4,1.08ZM1054.43,1.71c0,.33-.16.82-.48,1.49-.24.51-.72,1.72-1.44,3.63s-1.15,3.09-1.31,3.54-.3,1.01-.42,1.66c-.1.51-.45.76-1.05.76-.77,0-1.16-.38-1.16-1.15,0-.8.48-2.35,1.44-4.63s1.69-3.85,2.21-4.7,1.01-1.27,1.49-1.27.73.22.73.67Z"/>
      <path class="cls-1" d="M1059.27,16.28c0,.54-.21,1.01-.62,1.4s-.89.59-1.42.59c-.41,0-.75-.14-1.04-.43s-.43-.63-.43-1.04c0-.54.22-1.01.65-1.42s.91-.62,1.44-.62c.41,0,.74.14,1.01.43s.4.65.4,1.08ZM1063.16,1.71c0,.33-.16.82-.48,1.49-.24.51-.72,1.72-1.44,3.63s-1.15,3.09-1.31,3.54-.3,1.01-.42,1.66c-.1.51-.45.76-1.05.76-.77,0-1.16-.38-1.16-1.15,0-.8.48-2.35,1.44-4.63s1.69-3.85,2.21-4.7,1.01-1.27,1.49-1.27.73.22.73.67Z"/>
      <path class="cls-1" d="M1068,16.28c0,.54-.21,1.01-.62,1.4s-.89.59-1.42.59c-.41,0-.75-.14-1.04-.43s-.43-.63-.43-1.04c0-.54.22-1.01.65-1.42s.91-.62,1.44-.62c.41,0,.74.14,1.01.43s.4.65.4,1.08ZM1071.89,1.71c0,.33-.16.82-.48,1.49-.24.51-.72,1.72-1.44,3.63s-1.15,3.09-1.31,3.54-.3,1.01-.42,1.66c-.1.51-.45.76-1.05.76-.77,0-1.16-.38-1.16-1.15,0-.8.48-2.35,1.44-4.63s1.69-3.85,2.21-4.7,1.01-1.27,1.49-1.27.73.22.73.67Z"/>
      <path class="cls-1" d="M1076.73,16.28c0,.54-.21,1.01-.62,1.4s-.89.59-1.42.59c-.41,0-.75-.14-1.04-.43s-.43-.63-.43-1.04c0-.54.22-1.01.65-1.42s.91-.62,1.44-.62c.41,0,.74.14,1.01.43s.4.65.4,1.08ZM1080.62,1.71c0,.33-.16.82-.48,1.49-.24.51-.72,1.72-1.44,3.63s-1.15,3.09-1.31,3.54-.3,1.01-.42,1.66c-.1.51-.45.76-1.05.76-.77,0-1.16-.38-1.16-1.15,0-.8.48-2.35,1.44-4.63s1.69-3.85,2.21-4.7,1.01-1.27,1.49-1.27.73.22.73.67Z"/>
      <path class="cls-1" d="M1085.46,16.28c0,.54-.21,1.01-.62,1.4s-.89.59-1.42.59c-.41,0-.75-.14-1.04-.43s-.43-.63-.43-1.04c0-.54.22-1.01.65-1.42s.91-.62,1.44-.62c.41,0,.74.14,1.01.43s.4.65.4,1.08ZM1089.35,1.71c0,.33-.16.82-.48,1.49-.24.51-.72,1.72-1.44,3.63s-1.15,3.09-1.31,3.54-.3,1.01-.42,1.66c-.1.51-.45.76-1.05.76-.77,0-1.16-.38-1.16-1.15,0-.8.48-2.35,1.44-4.63s1.69-3.85,2.21-4.7,1.01-1.27,1.49-1.27.73.22.73.67Z"/>
      <path class="cls-1" d="M1094.19,16.28c0,.54-.21,1.01-.62,1.4s-.89.59-1.42.59c-.41,0-.75-.14-1.04-.43s-.43-.63-.43-1.04c0-.54.22-1.01.65-1.42s.91-.62,1.44-.62c.41,0,.74.14,1.01.43s.4.65.4,1.08ZM1098.08,1.71c0,.33-.16.82-.48,1.49-.24.51-.72,1.72-1.44,3.63s-1.15,3.09-1.31,3.54-.3,1.01-.42,1.66c-.1.51-.45.76-1.05.76-.77,0-1.16-.38-1.16-1.15,0-.8.48-2.35,1.44-4.63s1.69-3.85,2.21-4.7,1.01-1.27,1.49-1.27.73.22.73.67Z"/>
      <path class="cls-1" d="M1102.92,16.28c0,.54-.21,1.01-.62,1.4s-.89.59-1.42.59c-.41,0-.75-.14-1.04-.43s-.43-.63-.43-1.04c0-.54.22-1.01.65-1.42s.91-.62,1.44-.62c.41,0,.74.14,1.01.43s.4.65.4,1.08ZM1106.81,1.71c0,.33-.16.82-.48,1.49-.24.51-.72,1.72-1.44,3.63s-1.15,3.09-1.31,3.54-.3,1.01-.42,1.66c-.1.51-.45.76-1.05.76-.77,0-1.16-.38-1.16-1.15,0-.8.48-2.35,1.44-4.63s1.69-3.85,2.21-4.7,1.01-1.27,1.49-1.27.73.22.73.67Z"/>
      <path class="cls-1" d="M1111.65,16.28c0,.54-.21,1.01-.62,1.4s-.89.59-1.42.59c-.41,0-.75-.14-1.04-.43s-.43-.63-.43-1.04c0-.54.22-1.01.65-1.42s.91-.62,1.44-.62c.41,0,.74.14,1.01.43s.4.65.4,1.08ZM1115.54,1.71c0,.33-.16.82-.48,1.49-.24.51-.72,1.72-1.44,3.63s-1.15,3.09-1.31,3.54-.3,1.01-.42,1.66c-.1.51-.45.76-1.05.76-.77,0-1.16-.38-1.16-1.15,0-.8.48-2.35,1.44-4.63s1.69-3.85,2.21-4.7,1.01-1.27,1.49-1.27.73.22.73.67Z"/>
      <path class="cls-1" d="M1120.38,16.28c0,.54-.21,1.01-.62,1.4s-.89.59-1.42.59c-.41,0-.75-.14-1.04-.43s-.43-.63-.43-1.04c0-.54.22-1.01.65-1.42s.91-.62,1.44-.62c.41,0,.74.14,1.01.43s.4.65.4,1.08ZM1124.27,1.71c0,.33-.16.82-.48,1.49-.24.51-.72,1.72-1.44,3.63s-1.15,3.09-1.31,3.54-.3,1.01-.42,1.66c-.1.51-.45.76-1.05.76-.77,0-1.16-.38-1.16-1.15,0-.8.48-2.35,1.44-4.63s1.69-3.85,2.21-4.7,1.01-1.27,1.49-1.27.73.22.73.67Z"/>
      <path class="cls-1" d="M1129.11,16.28c0,.54-.21,1.01-.62,1.4s-.89.59-1.42.59c-.41,0-.75-.14-1.04-.43s-.43-.63-.43-1.04c0-.54.22-1.01.65-1.42s.91-.62,1.44-.62c.41,0,.74.14,1.01.43s.4.65.4,1.08ZM1133,1.71c0,.33-.16.82-.48,1.49-.24.51-.72,1.72-1.44,3.63s-1.15,3.09-1.31,3.54-.3,1.01-.42,1.66c-.1.51-.45.76-1.05.76-.77,0-1.16-.38-1.16-1.15,0-.8.48-2.35,1.44-4.63s1.69-3.85,2.21-4.7,1.01-1.27,1.49-1.27.73.22.73.67Z"/>
      <path class="cls-1" d="M1137.84,16.28c0,.54-.21,1.01-.62,1.4s-.89.59-1.42.59c-.41,0-.75-.14-1.04-.43s-.43-.63-.43-1.04c0-.54.22-1.01.65-1.42s.91-.62,1.44-.62c.41,0,.74.14,1.01.43s.4.65.4,1.08ZM1141.73,1.71c0,.33-.16.82-.48,1.49-.24.51-.72,1.72-1.44,3.63s-1.15,3.09-1.31,3.54-.3,1.01-.42,1.66c-.1.51-.45.76-1.05.76-.77,0-1.16-.38-1.16-1.15,0-.8.48-2.35,1.44-4.63s1.69-3.85,2.21-4.7,1.01-1.27,1.49-1.27.73.22.73.67Z"/>
      <path class="cls-1" d="M1146.57,16.28c0,.54-.21,1.01-.62,1.4s-.89.59-1.42.59c-.41,0-.75-.14-1.04-.43s-.43-.63-.43-1.04c0-.54.22-1.01.65-1.42s.91-.62,1.44-.62c.41,0,.74.14,1.01.43s.4.65.4,1.08ZM1150.46,1.71c0,.33-.16.82-.48,1.49-.24.51-.72,1.72-1.44,3.63s-1.15,3.09-1.31,3.54-.3,1.01-.42,1.66c-.1.51-.45.76-1.05.76-.77,0-1.16-.38-1.16-1.15,0-.8.48-2.35,1.44-4.63s1.69-3.85,2.21-4.7,1.01-1.27,1.49-1.27.73.22.73.67Z"/>
      <path class="cls-1" d="M1155.3,16.28c0,.54-.21,1.01-.62,1.4s-.89.59-1.42.59c-.41,0-.75-.14-1.04-.43s-.43-.63-.43-1.04c0-.54.22-1.01.65-1.42s.91-.62,1.44-.62c.41,0,.74.14,1.01.43s.4.65.4,1.08ZM1159.2,1.71c0,.33-.16.82-.48,1.49-.24.51-.72,1.72-1.44,3.63s-1.15,3.09-1.31,3.54-.3,1.01-.42,1.66c-.1.51-.45.76-1.05.76-.77,0-1.16-.38-1.16-1.15,0-.8.48-2.35,1.44-4.63s1.69-3.85,2.21-4.7,1.01-1.27,1.49-1.27.73.22.73.67Z"/>
    </g>
  </g>
</svg>