<?xml version="1.0" encoding="UTF-8"?>
<svg id="Layer_2" data-name="Layer 2" xmlns="http://www.w3.org/2000/svg" viewBox="0 0 169.37 207.77">
  <defs>
    <style>
      .cls-1 {
        fill: #000;
      }

      .cls-1, .cls-2, .cls-3 {
        stroke: #000;
        stroke-miterlimit: 10;
      }

      .cls-2 {
        fill: #e8c21f;
      }

      .cls-3 {
        fill: none;
      }
    </style>
  </defs>
  <g id="Layer_1-2" data-name="Layer 1">
    <g>
      <g>
        <path class="cls-2" d="M28.61,187.56c-15-16-11.5-50.83-11.75-56.42-2.25-5.58-16.47-6.09-16.36-16.34s24.11-12.25,20.11-13.25-12-3-14-7c2-2,25,9,41,6,3-7,8-28,.33-98.83C65.61-.44,106.61-.44,142.81,7.61c-18.2,65.94-14.28,98.06-14.28,98.06,0,0,32.08-4.12,40.08-2.12-4,7-15,7-16.36,9.29-4.64,4.71-10.08,10.04-11.86,14.38-1.78,4.34-1.78,8.34,2.22,16.34,10,20,1,38-11.66,49.02-50.34,32.98-96.34.98-102.34-5.02Z"/>
        <path class="cls-3" d="M20.61,101.56c31,9,107.64,18.29,134,10"/>
      </g>
      <path class="cls-1" d="M107.23,173.9c.37-.34-11.05-8.22-9.34-11.78s17.63.89,19.17,2.67-9.83,9.11-9.83,9.11Z"/>
      <path class="cls-3" d="M113.61,188.56c-4-4-8.79-5.33-8.79-5.33,0,0-21.45,2.12-23.33,4.22"/>
      <path class="cls-3" d="M107.23,173.9s.79,4-2.42,9.33"/>
      <circle class="cls-1" cx="74.11" cy="134.06" r="6.5"/>
      <ellipse class="cls-1" cx="125.11" cy="134.56" rx="3.5" ry="5"/>
      <path class="cls-3" d="M16.86,107.18s-21.75,5.21,0,16.29"/>
    </g>
  </g>
</svg>