<?xml version="1.0" encoding="UTF-8"?>
<svg id="Layer_2" data-name="Layer 2" xmlns="http://www.w3.org/2000/svg" viewBox="0 0 259.28 25.46">
  <defs>
    <style>
      .cls-1 {
        fill: #000;
        stroke-width: 0px;
      }
    </style>
  </defs>
  <g id="Layer_1-2" data-name="Layer 1">
    <g>
      <path class="cls-1" d="M13.93,13.99h1.73c1.09,0,1.63.38,1.63,1.15,0,.52-.19.92-.57,1.21s-.91.44-1.59.44h-2.34l-.87,2.16c-.95,2.38-1.93,4.06-2.96,5.04s-2.32,1.47-3.86,1.47c-1.45,0-2.67-.48-3.64-1.45s-1.46-2.17-1.46-3.62c0-2.28,1.09-4.04,3.28-5.27,1.34-.74,3.17-1.11,5.51-1.11l1.86-.02.4-1c-.59.22-1.2.33-1.82.33-1.2,0-2.16-.42-2.89-1.25s-1.1-1.93-1.1-3.29h-1.92c-.88,0-1.31-.37-1.31-1.11,0-.48.18-.88.53-1.2s.79-.49,1.32-.49h2c.85-1.7,1.93-3.02,3.23-3.98s2.67-1.44,4.12-1.44c1.2,0,2.17.35,2.92,1.05s1.13,1.61,1.13,2.72c0,1.56-.7,2.77-2.1,3.61-.93.56-2.33.84-4.2.84h-2.67v.23c0,1,.59,1.5,1.76,1.5.52,0,1.06-.16,1.61-.47l.62-.36c.54-.31,1-.47,1.38-.47.43,0,.79.13,1.07.39s.42.59.42,1c0,.25-.11.64-.33,1.18l-.89,2.2ZM9.52,16.79c-1.65,0-2.91.16-3.79.47-.81.29-1.45.71-1.92,1.25s-.7,1.14-.7,1.8c0,.61.2,1.12.6,1.55s.9.63,1.48.63c.71,0,1.35-.32,1.93-.95s1.15-1.66,1.72-3.07l.68-1.68ZM9.15,5.99h2.27c1.94,0,2.91-.53,2.91-1.58,0-.31-.13-.57-.38-.78s-.58-.31-.97-.31c-.6,0-1.24.24-1.93.71s-1.32,1.13-1.9,1.96Z"/>
      <path class="cls-1" d="M21.14,10.39l-.4.98c-.36.88-.83,1.31-1.41,1.31-.35,0-.64-.11-.88-.32s-.35-.47-.35-.79c0-.18.09-.48.26-.91l1.32-3.27c.32-.79.77-1.18,1.36-1.18s.93.27,1.07.82l.09.36c.05.19.12.3.21.35s.32.07.69.07h2.74c1.02,0,1.54.36,1.54,1.08,0,.99-.65,1.49-1.95,1.49l-.13.12c-1.24,1.19-1.86,2.11-1.86,2.75s.36.97,1.08.97h1.48c.99,0,1.49.34,1.49,1.03,0,.48-.17.86-.52,1.12s-.83.4-1.46.4h-2.3c-.78,0-1.42-.27-1.92-.81s-.74-1.24-.74-2.1c0-.55.13-1.08.4-1.59s.73-1.15,1.41-1.9h-1.22Z"/>
      <path class="cls-1" d="M30.82,13.36c0,.59.44.88,1.32.88h3.48c.98,0,1.48.35,1.48,1.04,0,.48-.17.85-.52,1.11s-.83.4-1.46.4h-3.32c-1.23,0-2.17-.3-2.82-.91s-.97-1.5-.97-2.67c0-1.51.51-2.81,1.53-3.9s2.23-1.64,3.64-1.64c1.02,0,1.85.27,2.47.8s.93,1.24.93,2.12c0,1.05-.43,1.84-1.29,2.34-.48.29-1.19.43-2.13.43h-2.34ZM31.38,11.23h1.29c.84,0,1.24-.18,1.22-.55-.02-.41-.29-.62-.81-.62-.72,0-1.29.39-1.7,1.17Z"/>
      <path class="cls-1" d="M40.36,13.36c0,.59.44.88,1.32.88h3.48c.98,0,1.48.35,1.48,1.04,0,.48-.17.85-.52,1.11s-.83.4-1.46.4h-3.32c-1.23,0-2.17-.3-2.82-.91s-.97-1.5-.97-2.67c0-1.51.51-2.81,1.53-3.9s2.23-1.64,3.64-1.64c1.02,0,1.85.27,2.47.8s.93,1.24.93,2.12c0,1.05-.43,1.84-1.29,2.34-.48.29-1.19.43-2.13.43h-2.34ZM40.92,11.23h1.29c.84,0,1.24-.18,1.22-.55-.02-.41-.29-.62-.81-.62-.72,0-1.29.39-1.7,1.17Z"/>
      <path class="cls-1" d="M55.77,14.24h1.41c.99,0,1.49.35,1.49,1.04,0,.48-.18.85-.53,1.11s-.84.4-1.45.4h-2.45c-.48,0-.88-.14-1.2-.43s-.49-.65-.49-1.09c0-.27.11-.66.33-1.2l1.03-2.55c.11-.27.17-.48.18-.64,0-.19-.07-.35-.23-.48s-.37-.2-.62-.2c-.8,0-1.45.61-1.95,1.82l-1.38,3.4c-.41,1.03-1.03,1.55-1.85,1.55-.34,0-.62-.1-.86-.3s-.35-.45-.35-.75c0-.22.06-.48.19-.79l.13-.32,2.37-5.84c.3-.76.82-1.14,1.56-1.14.6,0,1.03.27,1.29.8.84-.64,1.63-.96,2.39-.96s1.34.21,1.82.63.71.96.71,1.61c0,.36-.09.75-.26,1.18l-1.28,3.15Z"/>
      <path class="cls-1" d="M67.04,4.3l2.08,1.73-.93.9v6.38c0,.67.06,1.11.17,1.31s.23.3.35.3c.08,0,.16-.02.23-.06.1-.05.3-.21.61-.47l.29.36-2.51,2.04c-.63-.45-1.03-.87-1.21-1.26s-.27-1.08-.27-2.07v-6.54l-.88-.9,2.07-1.73ZM67.92.29h1.49l-1.62,2.53h-.47l.6-2.53Z"/>
      <path class="cls-1" d="M77.63,8.65l2.72,1.42v4.93c-.66.06-1.25.22-1.78.48s-1.13.7-1.81,1.31c-.58-.34-1.08-.58-1.51-.71s-.88-.2-1.35-.2c-.74,0-1.39.22-1.96.67-.21.16-.36.25-.46.25-.09,0-.17-.04-.26-.13s-.13-.17-.13-.26c0-.09.08-.22.25-.38.09-.09.25-.27.48-.54l1.07-1.32,1.51-2.01-2.56-1.38v-4.37c.81-.25,1.44-.53,1.9-.84s.9-.73,1.32-1.27c1,.42,1.8.72,2.41.89.44.12.86.18,1.25.18.44,0,.78-.1,1.02-.29s.36-.39.36-.6c0-.14-.08-.28-.23-.42-.3-.27-.46-.54-.46-.8,0-.24.07-.44.2-.58s.28-.22.45-.22c.22,0,.42.1.59.3s.26.46.26.79-.07.66-.21.98-.41.73-.81,1.24l-2.26,2.87ZM76.22,10.52l-2.82,3.78c.34-.12.66-.2.96-.26s.57-.08.81-.08c.9,0,1.83.3,2.8.89v-3.4l-1.75-.94ZM74.2,9.46l1.6.83,2.56-3.4c-.52.15-.98.22-1.36.22-.96,0-1.89-.32-2.8-.96v3.3Z"/>
      <path class="cls-1" d="M88.21,5.58l3.27-4.03h.34l-.12,3.23h2.36v1.31h-2.36v7.9l1.31.97.75-.59.29.35-2.58,2.06c-.88-.9-1.87-1.51-2.98-1.83v-.23c.31-.21.52-.43.62-.66.13-.29.2-.71.2-1.26v-6.72h-1.1v-.51Z"/>
      <path class="cls-1" d="M99.93,0l.12.28c-.56.36-.94.74-1.15,1.15s-.31,1.05-.31,1.93v3.82l3.63-2.88c.77.5,1.27.98,1.51,1.45.23.47.35,1.26.35,2.38v5.31c0,1.02-.11,1.76-.32,2.23-.34.77-.96,1.49-1.86,2.16-1.19.89-2.7,1.66-4.54,2.31l-.16-.45c1.49-.62,2.53-1.18,3.12-1.69.59-.51.97-1.05,1.15-1.62.13-.43.2-1.55.2-3.35v-4.91c0-.55-.05-.93-.16-1.14-.16-.29-.47-.57-.9-.86l-2,1.62v6.52l.83.84-2.06,1.68-2.09-1.68.93-.92V3.54c0-.97-.08-1.63-.26-1.99-.17-.36-.51-.68-1.01-.97l.13-.29c.41.12.74.25.99.39.25.14.58.4.98.76.48-.45.94-.79,1.37-1,.44-.21.94-.36,1.51-.43Z"/>
      <path class="cls-1" d="M111.12,4.3l3.3,3.86-5.25,3.68v2.13l2.72,1.08,1.84-1.25.26.35-3.79,2.65c-.77-.41-1.41-.71-1.91-.89-.5-.18-1.21-.37-2.14-.56v-.29c.27-.16.44-.35.53-.58s.13-.73.13-1.49v-6.7c.73-.27,1.34-.51,1.83-.73.35-.16,1.18-.58,2.47-1.24ZM109.34,5.65l-.16.08v5.32l3.09-2.16-2.92-3.24Z"/>
      <path class="cls-1" d="M128.99,4.3l1.6,1.76,1.14-1.1.33.32c-.55.5-.89.88-1.01,1.14-.16.34-.24.82-.24,1.42v5.59c0,.52.08.9.25,1.15.1.17.22.25.34.25.11,0,.37-.15.78-.46l.29.36-2.51,2.06c-.65-.49-1.07-.92-1.25-1.3-.18-.38-.28-.98-.28-1.82v-6.41l-1.04-1.09-2,1.6v6.5l.88.84-2.07,1.68-2.08-1.68.88-.84v-5.98c0-.85-.09-1.42-.26-1.72-.12-.2-.25-.3-.4-.3-.16,0-.39.15-.71.46l-.29-.36,2.49-2.06c.69.51,1.12.92,1.29,1.22.17.3.26.71.26,1.24v.42l3.59-2.88Z"/>
      <path class="cls-1" d="M138.98,4.3l3.3,3.86-5.25,3.68v2.13l2.72,1.08,1.84-1.25.26.35-3.79,2.65c-.77-.41-1.41-.71-1.91-.89-.5-.18-1.21-.37-2.14-.56v-.29c.27-.16.44-.35.53-.58s.13-.73.13-1.49v-6.7c.73-.27,1.34-.51,1.83-.73.35-.16,1.18-.58,2.47-1.24ZM137.2,5.65l-.16.08v5.32l3.09-2.16-2.92-3.24Z"/>
      <path class="cls-1" d="M152.41,7.12l3.49-2.82c.73.52,1.2.99,1.42,1.39.31.55.46,1.18.46,1.91v7.1c-.82.26-1.51.54-2.08.86s-1.13.72-1.71,1.23c-1.32-.84-2.42-1.25-3.3-1.25-.83,0-1.66.42-2.48,1.25-.77-.64-1.52-1.1-2.22-1.39s-1.48-.45-2.32-.5v-.28c.35-.14.6-.34.74-.6s.22-.77.22-1.53v-4.44c0-.7-.02-1.12-.06-1.27s-.17-.35-.38-.59c-.34-.39-.56-.72-.68-1s-.18-.6-.18-.96c0-.66.2-1.23.61-1.73s1.12-.99,2.14-1.49l.21.3c-.84.59-1.27,1.16-1.27,1.71,0,.2.05.38.14.55.05.09.33.42.86,1,.35.38.62.81.81,1.28.11.28.18.68.22,1.21l3.42-2.75c.62.41,1.08.84,1.38,1.29.3.45.49.96.57,1.54ZM147.05,7.62v6.02l2.95,1.23v-6.39c0-.67-.07-1.15-.21-1.42s-.46-.57-.96-.89l-1.78,1.45ZM152.41,7.72v5.86l2.98,1.25v-6.52c0-.58-.06-.98-.17-1.19-.11-.21-.44-.53-.98-.94l-1.82,1.54Z"/>
      <path class="cls-1" d="M175.23,16.79h-9.22v-3.9h1.42V4.39h-1.42V.49h9.96c1.95,0,3.46.11,4.54.34,1.05.23,1.88.7,2.48,1.39.6.71.9,1.54.9,2.48s-.29,1.66-.86,2.2c-.59.56-1.3.95-2.13,1.17,1.15.34,2.03.88,2.65,1.59.62.73.94,1.56.94,2.47,0,1.09-.35,2.02-1.05,2.79-.7.76-1.67,1.25-2.89,1.49-1.21.24-2.98.36-5.31.36ZM173.73,4.07v2.98h1.39c.95,0,1.57-.14,1.86-.41.28-.27.42-.63.42-1.08,0-.38-.13-.73-.39-1.03s-.96-.46-2.12-.46h-1.17ZM173.73,10.01v3.21h1.42c.91,0,1.56-.12,1.96-.35.39-.23.59-.65.59-1.24,0-.55-.18-.96-.53-1.23-.35-.26-1.03-.39-2.04-.39h-1.39Z"/>
      <path class="cls-1" d="M201.82,16.79h-15.52v-3.9h1.46V4.39h-1.46V.49h9.32v3.9h-1.55v8.5h3.86v-2.61h3.89v6.52Z"/>
      <path class="cls-1" d="M208.93,16.79h-6.46v-3.9h1.24l3.06-8.5h-1.31V.49h11.72v3.9h-1.31l3.12,8.5h1.2v3.9h-8.51v-3.57h1.43l-.62-2.05h-4.17l-.71,2.05h1.34v3.57ZM210.47,4.63l-1.54,4.51h2.92l-1.38-4.51Z"/>
      <path class="cls-1" d="M233.96,9.61l4.23,1.49c-.36,1.74-1.18,3.17-2.47,4.28-1.3,1.12-3.1,1.68-5.39,1.68-3.12,0-5.44-.82-6.94-2.45-1.51-1.62-2.26-3.61-2.26-5.95s.74-4.36,2.21-6.01,3.39-2.47,5.75-2.47c1.91,0,3.47.47,4.68,1.42V.49h3.91v5.95h-4.07c-.21-.74-.57-1.33-1.07-1.76-.5-.42-1.07-.63-1.71-.63-1.77,0-2.65,1.52-2.65,4.56s.91,4.57,2.74,4.57c1.6,0,2.61-1.19,3.02-3.57Z"/>
      <path class="cls-1" d="M249.14,16.79h-8.84v-3.9h1.24V4.39h-1.28V.49h8.87v3.9h-1.29v8.5h1.29v3.9ZM259.28,16.79h-8.44v-3.9h.79l-3.57-4.64,4.15-3.86h-1.32V.49h8.03v3.9h-1.27l-3.33,3.09,4.16,5.4h.81v3.9Z"/>
    </g>
  </g>
</svg>